<svg width="529" height="24" viewBox="0 0 529 24" fill="none" xmlns="http://www.w3.org/2000/svg">
<path d="M134.052 0H150.238L141.186 24H123.935L134.052 0Z" fill="white"/>
<path d="M52.463 0H68.6494L59.5978 24H42.3465L52.463 0Z" fill="white"/>
<path d="M93.8011 0H109.988L100.936 24H83.6846L93.8011 0Z" fill="white"/>
<path d="M10.1165 0H26.3029L17.2513 24H0L10.1165 0Z" fill="white"/>
<path d="M260.306 0H276.492L267.44 24H250.189L260.306 0Z" fill="white"/>
<path d="M386.56 0H402.746L393.694 24H376.443L386.56 0Z" fill="white"/>
<path d="M512.814 0H529L519.948 24H502.697L512.814 0Z" fill="white"/>
<path d="M176.136 0H192.323L183.271 24H166.02L176.136 0Z" fill="white"/>
<path d="M302.39 0H318.577L309.525 24H292.274L302.39 0Z" fill="white"/>
<path d="M428.644 0H444.831L435.779 24H418.528L428.644 0Z" fill="white"/>
<path d="M218.221 0H234.407L225.356 24H208.104L218.221 0Z" fill="white"/>
<path d="M344.475 0H360.661L351.61 24H334.358L344.475 0Z" fill="white"/>
<path d="M470.729 0H486.915L477.864 24H460.612L470.729 0Z" fill="white"/>
</svg>
