<svg width="590" height="584" viewBox="0 0 590 584" fill="none" xmlns="http://www.w3.org/2000/svg">
<ellipse cx="335.695" cy="404.949" rx="253.485" ry="178.378" fill="url(#paint0_radial)" fill-opacity="0.6"/>
<path d="M533.759 433.255L314.457 307.042C301.918 299.841 291.729 280.447 291.729 263.771V84.912L556.487 237.278V416.272C556.487 432.813 546.299 440.489 533.759 433.255Z" fill="#352535"/>
<path d="M535.258 249.437L556.487 239.418L548.65 434.444L526.808 447.045L535.258 249.437Z" fill="#352535"/>
<path d="M512.531 445.55L293.229 319.269C280.689 312.136 270.501 292.743 270.501 276.066V97.0714L535.259 249.437V428.432C535.259 445.109 525.07 452.785 512.531 445.55Z" fill="#3F2C3E"/>
<path d="M520.368 404.962L285.426 269.748V264.654L520.368 399.867V404.962Z" fill="white"/>
<path d="M520.368 355.645L285.426 220.432V215.337L520.368 350.517V355.645Z" fill="white"/>
<path d="M520.368 306.057L285.426 170.843V165.748L520.368 300.928V306.057Z" fill="white"/>
<path d="M334.288 246.007V196.249L330.438 194.041V243.799L334.288 246.007Z" fill="white"/>
<path d="M391.192 278.749V228.991L387.342 226.783V276.541L391.192 278.749Z" fill="white"/>
<path d="M283.279 54.4116L262.051 66.7069L541.631 226.885L562.893 214.556L283.279 54.4116Z" fill="#E5DCFF"/>
<path d="M421.007 157.766L381.14 180.727L418.111 201.921L458.012 178.96L421.007 157.766Z" fill="#F3F0FF"/>
<path d="M262.051 66.7069V112.525L275.919 120.473L315.82 97.5129L262.051 66.7069Z" fill="#F3F0FF"/>
<path d="M492.359 198.626L452.458 221.586L488.168 242.067L528.035 219.073L492.359 198.626Z" fill="#F3F0FF"/>
<path d="M350.167 117.179L310.266 140.139L346.793 161.061L386.66 138.101L350.167 117.179Z" fill="#F3F0FF"/>
<path d="M541.63 250.694L522.515 261.733L541.63 272.703V250.694Z" fill="#F3F0FF"/>
<path d="M541.631 226.885L528.035 219.073L488.168 242.067L522.515 261.733L541.631 250.694V226.885Z" fill="#4C384C"/>
<path d="M458.012 178.961L418.111 201.921L452.458 221.586L492.359 198.626L458.012 178.961Z" fill="#4C384C"/>
<path d="M386.66 138.101L346.793 161.061L381.14 180.727L421.007 157.766L386.66 138.101Z" fill="#4C384C"/>
<path d="M315.82 97.5129L275.919 120.473L310.266 140.139L350.167 117.179L315.82 97.5129Z" fill="#4C384C"/>
<path d="M541.63 272.703L562.893 260.374V214.556L541.63 226.885V272.703Z" fill="#C7C3F4"/>
<path d="M407.889 125.806L386.66 138.101L421.007 157.766L442.236 145.471L407.889 125.806Z" fill="#604C60"/>
<path d="M479.24 166.665L458.012 178.961L492.359 198.626L513.587 186.331L479.24 166.665Z" fill="#604C60"/>
<path d="M549.263 206.88L528.035 219.175L541.63 226.885L562.893 214.556L549.263 206.88Z" fill="#604C60"/>
<path d="M337.048 85.1837L315.82 97.5129L350.167 117.179L371.395 104.883L337.048 85.1837Z" fill="#604C60"/>
<path d="M283.279 0L262.051 12.3292L541.631 172.473L562.893 160.178L283.279 0Z" fill="#E5DCFF"/>
<path d="M297.761 8.28741L276.532 20.6166L317.456 44.0523L338.684 31.7571L297.761 8.28741Z" fill="#604C60"/>
<path d="M369.248 49.249L348.02 61.5782L388.978 85.0139L410.206 72.7186L369.248 49.249Z" fill="#604C60"/>
<path d="M441.316 90.5161L420.087 102.845L461.011 126.281L482.239 113.986L441.316 90.5161Z" fill="#604C60"/>
<path d="M511.781 130.968L490.519 143.263L531.476 166.733L552.705 154.404L511.781 130.968Z" fill="#604C60"/>
<path d="M388.978 85.0139L428.674 153.589L459.784 171.42L420.087 102.845L388.978 85.0139Z" fill="#F3F0FF"/>
<path d="M317.455 44.0523L357.186 112.627L387.751 130.119L348.02 61.5782L317.455 44.0523Z" fill="#F3F0FF"/>
<path d="M541.63 172.473L531.476 166.665L541.63 184.225V172.473Z" fill="#F3F0FF"/>
<path d="M490.519 143.196L461.01 126.281L500.741 194.856L530.25 211.77L490.519 143.196Z" fill="#F3F0FF"/>
<path d="M278.168 21.5337L262.051 12.3292V58.1138L316.229 89.1576L277.35 22.0092L278.168 21.5337Z" fill="#F3F0FF"/>
<path d="M420.087 102.845L459.784 171.42L500.741 194.856L461.011 126.281L420.087 102.845Z" fill="#4C384C"/>
<path d="M541.63 218.292V184.225L531.476 166.665L490.519 143.196L530.25 211.77L541.63 218.292Z" fill="#4C384C"/>
<path d="M276.532 20.6166L316.229 89.1576L357.186 112.627L317.456 44.0523L276.532 20.6166Z" fill="#4C384C"/>
<path d="M348.02 61.5782L387.751 130.119L428.674 153.589L388.978 85.0139L348.02 61.5782Z" fill="#4C384C"/>
<path d="M541.63 218.292L562.893 205.996V160.178L541.63 172.473V218.292Z" fill="#C7C3F4"/>
<path d="M309.823 120.711C304.575 103.083 283.006 42.8636 279.497 32.4024C275.987 21.9413 268.695 17.2202 265.049 19.8015L261.301 21.9413L262.937 24.0131C262.9 24.4766 262.9 24.9422 262.937 25.4057V101.385C262.937 110.454 265.56 116.329 272.239 120.167L303.69 138.271L302.599 138.78L305.359 141.837L309.823 139.256C312.447 137.625 313.23 132.123 309.823 120.711Z" fill="#B5A7F2"/>
<path d="M258.711 103.762C258.711 112.865 261.335 118.877 268.014 122.579L299.771 140.852C305.973 144.418 311.118 141.124 305.734 123.122C300.35 105.121 278.952 45.2751 275.442 34.8139C270.535 19.8694 258.711 17.356 258.711 27.8172V103.762Z" fill="#C7C3F4"/>
<path d="M269.683 111.337C269.683 114.122 267.98 115.412 265.867 114.19C264.72 113.358 263.783 112.271 263.132 111.015C262.482 109.759 262.135 108.369 262.119 106.955C262.119 104.17 263.822 102.879 265.901 104.102C267.056 104.928 268.001 106.013 268.658 107.27C269.315 108.526 269.666 109.92 269.683 111.337V111.337Z" fill="#F3F0FF"/>
<path d="M267.741 111.099C267.741 113.103 266.514 114.02 265.015 113.171C264.151 112.59 263.438 111.813 262.934 110.903C262.431 109.994 262.151 108.978 262.119 107.94C262.119 105.936 263.345 104.985 264.879 105.868C265.723 106.466 266.42 107.248 266.916 108.154C267.412 109.06 267.694 110.068 267.741 111.099Z" fill="white"/>
<path d="M269.683 39.1614C269.683 41.9465 267.98 43.2372 265.867 42.0145C264.724 41.1795 263.79 40.0917 263.14 38.8364C262.489 37.5811 262.14 36.1926 262.119 34.78C262.119 31.9949 263.822 30.7042 265.901 31.9269C267.056 32.7526 268.001 33.8377 268.658 35.0944C269.315 36.3512 269.666 37.7444 269.683 39.1614V39.1614Z" fill="#F3F0FF"/>
<path d="M267.741 38.9236C267.741 40.9276 266.514 41.8446 265.015 40.9955C264.151 40.4147 263.438 39.6376 262.934 38.7282C262.431 37.8188 262.151 36.8031 262.119 35.7649C262.119 33.761 263.345 32.81 264.879 33.6931C265.736 34.2776 266.443 35.0563 266.941 35.9655C267.438 36.8747 267.712 37.8884 267.741 38.9236V38.9236Z" fill="white"/>
<path d="M300.044 128.862C300.044 131.682 298.34 132.938 296.227 131.749C295.078 130.918 294.137 129.832 293.481 128.576C292.825 127.321 292.47 125.93 292.445 124.515C292.445 121.73 294.149 120.439 296.227 121.628C297.387 122.452 298.337 123.536 298.999 124.792C299.662 126.049 300.02 127.443 300.044 128.862V128.862Z" fill="#F3F0FF"/>
<path d="M358.397 533.745C358.397 533.745 343.673 487.003 312.487 457.473C287.946 434.238 248.179 423.683 224.863 405.111C190.124 377.46 178.139 347.277 178.139 347.277L130.278 361.949C130.278 361.949 143.748 390.484 177.283 420.015C199.702 439.806 243.324 452.084 267.034 474.356C299.04 504.448 310.57 548.438 310.57 548.438L358.397 533.745Z" fill="#32393F"/>
<path d="M251.075 421.036C241.36 416.089 232.282 410.993 224.869 405.086C190.13 377.436 178.144 347.253 178.144 347.253L130.284 361.925C130.284 361.925 143.753 390.459 177.289 419.99C193.622 434.412 221.201 444.846 244.134 458.051C243.911 443.394 246.245 430.688 251.075 421.036Z" fill="#262833"/>
<path d="M257.086 130.834C206.131 83.3429 152.229 99.5403 136.702 166.987C121.175 234.433 149.904 327.585 200.867 375.04C251.831 422.494 305.727 406.321 321.254 338.875C336.781 271.428 308.052 178.277 257.086 130.834ZM177.315 279.714C165.339 278.113 153.269 261.411 150.479 242.451C147.689 223.492 154.973 209.369 166.976 210.963C178.979 212.557 191.022 229.267 193.812 248.226C196.602 267.186 189.254 281.307 177.315 279.714ZM220.638 197.203C208.663 195.602 196.59 178.911 193.803 159.939C191.015 140.968 198.379 126.837 210.306 128.427C222.232 130.017 234.354 146.719 237.141 165.69C239.929 184.662 232.586 198.758 220.622 197.16L220.638 197.203ZM216.833 241.631C218.886 232.714 226.018 230.58 232.746 236.843C239.474 243.106 243.287 255.39 241.237 264.295C239.187 273.2 232.064 275.35 225.324 269.084C218.584 262.818 214.73 250.486 216.781 241.581L216.833 241.631ZM247.703 377.485C235.74 375.887 223.728 359.211 220.88 340.225C218.031 321.239 225.423 307.154 237.398 308.755C249.374 310.356 261.374 327.029 264.222 346.015C267.07 365.001 259.626 379.035 247.651 377.435L247.703 377.485ZM291.027 294.973C279.063 293.375 267.052 276.699 264.203 257.713C261.355 238.727 268.702 224.555 280.672 226.18C292.643 227.806 304.648 244.455 307.499 263.428C310.35 282.402 302.958 296.487 290.983 294.886L291.027 294.973Z" fill="#FFD9E8"/>
<path d="M323.528 270.355C318.587 277.192 312.183 282.84 304.783 286.888C301.793 292.622 296.965 295.685 290.983 294.886C288.797 294.563 286.691 293.834 284.772 292.737C280.445 293.01 276.1 292.654 271.875 291.682C258.017 288.492 246.995 279.121 240.396 266.606C237.707 273.489 231.308 274.726 225.214 269.058C218.489 262.783 214.682 250.475 216.732 241.57C218.782 232.665 225.917 230.518 232.645 236.781C233.015 237.123 233.378 237.502 233.679 237.867C233.748 233.289 234.302 228.732 235.332 224.272C242.105 194.848 267.624 175.341 293.552 178.882C283.444 160.409 271.116 143.878 257.086 130.834C206.131 83.3429 152.229 99.5403 136.702 166.987C121.175 234.433 149.904 327.585 200.867 375.04C251.831 422.494 305.727 406.321 321.254 338.875C326.101 317.82 326.632 294.256 323.528 270.355ZM177.315 279.714C165.339 278.113 153.269 261.411 150.479 242.451C147.689 223.492 154.973 209.369 166.976 210.963C178.979 212.557 191.022 229.267 193.812 248.226C196.602 267.186 189.254 281.307 177.315 279.714ZM193.778 159.934C190.936 140.924 198.379 126.837 210.306 128.427C222.232 130.017 234.354 146.719 237.141 165.69C239.929 184.662 232.586 198.758 220.622 197.16C208.659 195.562 196.672 178.891 193.778 159.934ZM247.642 377.471C235.679 375.873 223.667 359.197 220.819 340.211C217.97 321.225 225.362 307.14 237.338 308.741C249.313 310.342 261.313 327.015 264.161 346.001C267.009 364.987 259.626 379.035 247.651 377.435L247.642 377.471Z" fill="#FF7BC3"/>
<path d="M251.1 132.565C200.139 85.0978 146.237 101.295 130.71 168.742C115.184 236.188 143.912 329.34 194.876 376.795C245.839 424.249 299.739 408.064 315.265 340.617C330.792 273.171 302.063 180.019 251.1 132.565ZM171.301 281.451C159.326 279.85 147.314 263.174 144.466 244.188C141.617 225.202 149.021 211.12 160.976 212.755C172.931 214.389 185.022 231.058 187.812 250.018C190.602 268.977 183.265 283.049 171.301 281.451ZM214.613 198.937C202.65 197.339 190.641 180.65 187.789 161.676C184.938 142.703 192.353 128.572 204.3 130.243C216.247 131.914 228.348 148.534 231.124 167.503C233.899 186.472 226.594 200.513 214.619 198.912L214.613 198.937ZM210.81 243.353C212.861 234.448 219.996 232.302 226.721 238.577C233.446 244.852 237.256 257.149 235.203 266.066C233.15 274.983 226.03 277.12 219.293 270.842C212.556 264.564 208.742 252.229 210.792 243.323L210.81 243.353ZM241.662 379.177C229.696 377.591 217.684 360.915 214.835 341.929C211.987 322.943 219.379 308.858 231.354 310.459C243.33 312.06 255.342 328.736 258.178 347.719C261.014 366.702 253.637 380.778 241.662 379.177ZM284.986 296.666C273.022 295.067 261.013 278.379 258.162 259.405C255.311 240.432 262.705 226.334 274.681 227.935C286.657 229.536 298.656 246.21 301.504 265.196C304.353 284.181 296.967 298.242 284.991 296.641L284.986 296.666Z" fill="#B030B0"/>
<path d="M230.887 234.539C222.87 227.068 214.41 229.616 211.967 240.229C209.523 250.841 214.033 265.457 222.052 272.916C230.072 280.376 238.53 277.84 240.97 267.239C243.41 256.639 238.894 241.996 230.887 234.539ZM223.507 266.597C218.133 261.597 215.105 251.818 216.747 244.682C218.39 237.545 224.058 235.857 229.432 240.858C234.806 245.859 237.835 255.638 236.189 262.786C234.543 269.935 228.869 271.595 223.507 266.597V266.597Z" fill="#FFCFE7"/>
<path d="M285.081 327.554C297.656 272.929 274.384 197.475 233.102 159.019C190.566 119.374 149.423 143.698 126.249 153.469C143.933 148.074 165.246 154.367 185.961 173.638C227.208 212.074 250.514 287.548 237.939 342.174C231.887 368.462 218.647 385.131 201.939 391.086L247.007 377.274L247.043 377.115C264.711 371.844 278.785 354.904 285.081 327.554Z" fill="#32393F"/>
<path d="M212.598 144.472C177.698 126.894 145.618 145.276 126.249 153.469C142.36 148.546 161.449 153.339 180.435 168.847C189.374 158.605 200.321 150.308 212.598 144.472V144.472Z" fill="#262833"/>
<path d="M284.851 328.439C272.938 329.044 260.999 327.986 249.377 325.295C246.474 324.627 243.636 323.845 240.823 323.005C240.326 329.473 239.358 335.896 237.928 342.223C231.876 368.511 218.636 385.18 201.928 391.135L246.996 377.322L247.032 377.164C264.518 371.902 278.46 355.253 284.851 328.439Z" fill="#262833"/>
<path d="M201.933 391.11L203.311 390.708C203.774 390.481 204.222 390.263 204.661 390.03C203.739 390.408 202.844 390.78 201.933 391.11Z" fill="#2B2321"/>
<path d="M233.102 159.019C190.566 119.374 149.423 143.698 126.249 153.469L127.047 153.242C150.697 142.797 190.003 122.43 230.589 160.226C271.835 198.674 295.143 274.136 282.565 328.774C277.19 352.122 266.128 367.867 252.004 375.264C267.315 368.513 279.388 352.281 285.081 327.554C297.656 272.929 274.384 197.475 233.102 159.019Z" fill="#262833"/>
<g style="mix-blend-mode:overlay" opacity="0.5">
<path d="M257.326 270.902C268.073 273.376 278.444 273.079 286.702 270.574C284.36 253.837 280.042 237.437 273.839 221.717C272.244 221.221 270.624 220.784 269.004 220.398C249.486 215.905 231.2 220.571 224.503 230.912C228.631 240.6 232.044 250.577 234.715 260.764C241.478 265.657 249.174 269.107 257.326 270.902V270.902Z" fill="#B6C3CC"/>
</g>
<path d="M88.4446 202.968C75.8664 257.606 99.1234 333.069 140.408 371.513C181.692 409.957 225.355 396.836 237.933 342.198C250.511 287.56 227.239 212.107 185.955 173.663C144.67 135.218 101.023 148.33 88.4446 202.968Z" fill="#231F28"/>
<path d="M193.653 150.656C142.687 103.214 88.7905 119.387 73.2636 186.833C57.7368 254.28 86.4657 347.432 137.432 394.874C188.398 442.317 242.295 426.144 257.822 358.697C273.348 291.251 244.614 198.123 193.653 150.656ZM113.858 299.531C101.882 297.93 89.8701 281.253 87.0218 262.268C84.1735 243.282 91.5651 229.197 103.541 230.798C115.516 232.398 127.586 249.101 130.364 268.058C133.142 287.015 125.815 301.153 113.858 299.531ZM157.169 217.016C145.206 215.418 133.182 198.739 130.343 179.768C127.504 160.797 134.886 146.697 146.864 148.286C158.843 149.875 170.837 166.573 173.688 185.546C176.539 204.52 169.145 218.617 157.169 217.016ZM153.364 261.445C155.417 252.528 162.537 250.391 169.274 256.669C176.011 262.947 179.797 275.237 177.756 284.158C175.716 293.078 168.61 295.206 161.824 288.916C155.039 282.627 151.292 270.332 153.342 261.427L153.364 261.445ZM184.234 397.299C172.27 395.701 160.259 379.024 157.407 360.051C154.556 341.077 161.954 326.968 173.926 328.581C185.899 330.194 197.834 346.814 200.74 365.775C203.645 384.735 196.188 398.882 184.212 397.281L184.234 397.299ZM227.558 314.787C215.594 313.189 203.573 296.498 200.737 277.515C197.901 258.532 205.277 244.456 217.253 246.057C229.229 247.658 241.239 264.283 244.063 283.263C246.887 302.243 239.53 316.349 227.542 314.745L227.558 314.787Z" fill="#B25684"/>
<path d="M187.662 152.411C136.701 104.944 82.7988 121.142 67.2664 188.613C51.7339 256.084 80.474 349.187 131.437 396.641C182.401 444.096 236.297 427.923 251.827 360.464C267.357 293.005 238.622 199.878 187.662 152.411ZM107.851 301.295C95.8846 299.709 83.8756 283.021 81.0245 264.047C78.1734 245.073 85.58 230.979 97.5434 232.577C109.507 234.175 121.531 250.854 124.355 269.835C127.179 288.815 119.824 302.908 107.851 301.295ZM151.175 218.783C139.211 217.185 127.126 200.492 124.351 181.523C121.576 162.554 128.894 148.452 140.87 150.053C152.846 151.654 164.851 168.303 167.752 187.34C170.653 206.376 163.156 220.36 151.18 218.759L151.175 218.783ZM147.369 263.212C149.422 254.295 156.545 252.146 163.282 258.424C170.019 264.702 173.796 276.977 171.746 285.882C169.696 294.787 162.573 296.937 155.833 290.671C149.093 284.405 145.3 272.087 147.351 263.182L147.369 263.212ZM178.239 399.066C166.264 397.465 154.267 380.779 151.416 361.806C148.565 342.832 155.959 328.735 167.935 330.336C179.91 331.937 191.91 348.61 194.758 367.596C197.607 386.582 190.205 400.6 178.221 399.036L178.239 399.066ZM221.563 316.554C209.59 314.941 197.517 298.251 194.742 279.282C191.967 260.313 199.286 246.211 211.261 247.812C223.237 249.413 235.237 266.086 238.085 285.072C240.933 304.058 233.528 318.089 221.513 316.492L221.563 316.554Z" fill="#B030B0"/>
<g style="mix-blend-mode:multiply" opacity="0.2">
<path d="M132.003 152.135C134.573 150.301 137.757 149.54 140.878 150.016C143.224 150.364 145.478 151.171 147.512 152.391L149.269 152.796C149.866 152.933 150.489 153.077 151.074 153.211L151.196 153.239L152.985 153.728L153.082 153.751L154.832 154.295L154.991 154.331L156.705 154.919L156.901 154.964C157.474 155.096 158.023 155.389 158.577 155.607L158.821 155.663C159.362 155.877 159.922 156.122 160.47 156.364L160.751 156.428L162.346 157.142L162.668 157.306C163.192 157.542 163.722 157.806 164.24 158.066L164.596 158.251L166.144 159.057L166.543 159.277C167.025 159.53 167.51 159.821 167.998 160.1L168.477 160.365L169.954 161.257L170.43 161.534L171.816 162.431L172.375 162.791C172.812 163.071 173.255 163.379 173.698 163.686L174.322 164.1L175.544 164.985C175.787 165.156 176.033 165.316 176.273 165.499L177.456 166.388L178.211 166.96L179.44 167.924L180.168 168.502L181.34 169.492C181.599 169.705 181.861 169.907 182.105 170.13L183.315 171.18L184.056 171.812L185.995 173.543C227.243 211.979 250.549 287.453 237.973 342.079C237.606 343.677 237.246 345.239 236.795 346.753L236.719 347.082C236.307 348.538 235.875 349.967 235.424 351.37L235.342 351.724C234.9 353.086 234.427 354.416 233.938 355.704C233.904 355.85 233.87 355.996 233.839 356.131C233.353 357.406 232.836 358.648 232.315 359.852C232.281 359.998 232.245 360.157 232.126 360.283C231.601 361.447 231.052 362.605 230.49 363.76L230.277 364.186C229.691 365.336 229.112 366.398 228.507 367.466C228.476 367.6 228.357 367.726 228.277 367.849C227.66 368.915 227.026 369.938 226.386 370.933L226.155 371.266C225.5 372.271 224.816 373.231 224.114 374.161C224.052 374.257 223.984 374.349 223.909 374.435C223.204 375.378 222.468 376.287 221.729 377.157C221.712 377.231 221.619 377.299 221.556 377.349C220.798 378.241 220.01 379.1 219.205 379.916L219.104 380.021C218.282 380.86 217.44 381.668 216.571 382.431C212.329 386.225 207.399 389.172 202.049 391.111L246.857 377.367C248.937 371.856 250.636 366.209 251.942 360.465C267.466 293.031 238.738 199.879 187.777 152.412C182.139 147.117 176.032 142.344 169.531 138.154C152.181 140.981 137.204 148.849 126.249 153.469C128.134 152.894 130.057 152.448 132.003 152.135V152.135Z" fill="#423734"/>
</g>
<g style="mix-blend-mode:multiply" opacity="0.3">
<path d="M224.863 405.111C218.567 400.109 212.618 394.684 207.06 388.874C210.448 387.125 213.604 384.961 216.456 382.43V382.43C217.313 381.664 218.166 380.859 218.989 380.021L219.09 379.915C219.894 379.099 220.683 378.24 221.441 377.348C221.441 377.348 221.548 377.219 221.613 377.157C222.353 376.286 223.089 375.377 223.794 374.435C223.869 374.348 223.937 374.257 223.998 374.16C224.701 373.23 225.384 372.27 226.04 371.265L226.27 370.933C226.91 369.937 227.544 368.914 228.162 367.849C228.193 367.714 228.312 367.588 228.392 367.465C228.997 366.397 229.581 365.311 230.161 364.186L230.375 363.759C230.936 362.604 231.486 361.446 232.01 360.282C232.044 360.136 232.141 359.991 232.2 359.851C232.712 358.684 233.238 357.405 233.724 356.13C233.755 355.996 233.789 355.849 233.822 355.703C234.312 354.415 234.785 353.086 235.227 351.723L235.308 351.369C235.758 349.974 236.19 348.545 236.604 347.082L236.651 346.874C237.066 345.351 237.462 343.798 237.83 342.2C250.405 287.575 227.136 212.109 185.852 173.665L183.912 171.934L183.172 171.301L181.962 170.251C181.718 170.028 181.456 169.827 181.197 169.613L180.024 168.624L179.297 168.045L178.067 167.081L177.43 166.446L176.247 165.558C176.007 165.374 175.761 165.214 175.518 165.043L174.296 164.158L173.672 163.744C173.229 163.437 172.786 163.129 172.349 162.849L171.79 162.489L170.404 161.592L169.886 161.331L168.408 160.439L167.93 160.175C167.442 159.895 166.956 159.604 166.475 159.352L166.076 159.131L164.561 158.346L164.196 158.146C163.678 157.886 163.148 157.622 162.624 157.386L162.302 157.222L160.719 156.511L160.439 156.446C159.891 156.204 159.269 155.946 158.789 155.745L158.545 155.689C157.991 155.472 157.367 155.225 156.869 155.046L156.674 155.001L154.959 154.414L154.788 154.375L153.038 153.831L152.941 153.808L151.202 153.215L151.129 153.198C150.531 153.061 149.909 152.917 149.323 152.783L147.567 152.378C157.01 157.892 165.385 171.843 167.752 187.34C170.6 206.325 163.209 220.411 151.233 218.81C139.257 217.209 127.184 200.518 124.409 181.549C122.411 167.91 125.616 156.779 132.053 152.198C130.108 152.507 128.186 152.949 126.302 153.52C108.739 158.892 94.7623 175.803 88.4971 203.019C85.9299 214.64 84.8012 226.533 85.1364 238.43C88.1356 234.162 92.4512 231.931 97.596 232.628C109.574 234.216 121.645 250.919 124.435 269.879C127.225 288.838 119.876 302.959 107.904 301.346C103.155 300.715 98.3915 297.692 94.2176 293.057C102.14 318.85 115.037 343.065 131.07 361.746C138.999 376.07 145.802 391.714 177.277 419.988C178.521 421.109 179.865 422.189 181.261 423.268C198.972 425.791 215.267 420.346 228.109 407.528C226.968 406.739 225.893 405.939 224.863 405.111ZM190.527 393.455C187.528 397.608 183.231 400.035 178.182 399.091C163.279 396.316 153.535 376.372 151.359 361.831C148.51 342.845 155.902 328.76 167.878 330.361C179.853 331.962 191.853 348.636 194.701 367.621C196.381 378.515 194.609 387.831 190.527 393.455V393.455ZM194.729 279.227C191.881 260.242 199.272 246.157 211.248 247.757C223.224 249.358 235.223 266.032 238.072 285.018C240.92 304.004 233.528 318.089 221.513 316.492C209.498 314.895 197.557 298.247 194.729 279.227V279.227Z" fill="#2B2321"/>
</g>
<path d="M163.005 255.611C154.998 248.154 146.525 250.699 144.084 261.3C141.644 271.901 146.208 286.503 154.179 293.951C162.149 301.4 170.671 298.865 173.111 288.265C175.552 277.664 171.036 263.021 163.005 255.611ZM155.625 287.669C150.263 282.671 147.222 272.889 148.865 265.753C150.508 258.617 156.185 256.944 161.547 261.942C166.909 266.94 169.962 276.724 168.316 283.873C166.671 291.021 161.01 292.621 155.636 287.62L155.625 287.669Z" fill="#FFCFE7"/>
<path d="M192.631 280.53C195.479 299.516 207.54 316.203 219.467 317.793C221.086 318.037 222.739 317.951 224.324 317.539C225.909 317.126 227.394 316.397 228.689 315.395C226.474 316.471 223.987 316.856 221.55 316.5C209.577 314.887 197.504 298.196 194.729 279.227C192.678 265.82 195.81 254.891 202.013 250.153C194.443 253.856 190.402 265.771 192.631 280.53Z" fill="#FFCFE7"/>
<path d="M149.311 363.081C152.147 382.064 164.22 398.755 176.135 400.341C177.756 400.585 179.41 400.498 180.997 400.086C182.584 399.675 184.071 398.947 185.369 397.946C183.149 399.015 180.659 399.395 178.221 399.036C166.245 397.435 154.248 380.749 151.397 361.776C149.345 348.368 152.481 337.427 158.681 332.701C151.119 336.368 147.079 348.283 149.311 363.081Z" fill="#FFCFE7"/>
<path d="M153.738 292.013C158.244 296.21 162.953 296.626 166.179 293.772C163.186 294.997 159.467 294.077 155.861 290.716C149.096 284.393 145.3 272.087 147.351 263.182C147.821 260.702 149.044 258.427 150.854 256.667C148.26 257.727 146.15 260.363 145.195 264.51C143.215 273.393 147.01 285.699 153.738 292.013Z" fill="#FF7BC3"/>
<path d="M122.271 182.804C125.107 201.787 137.119 218.463 149.094 220.064C150.716 220.308 152.369 220.221 153.956 219.809C155.543 219.398 157.031 218.67 158.329 217.669C156.109 218.74 153.619 219.12 151.18 218.759C139.217 217.161 127.132 200.468 124.357 181.499C122.302 168.103 125.441 157.15 131.641 152.424C124.067 156.14 120.044 167.982 122.271 182.804Z" fill="#FFCFE7"/>
<path d="M78.9385 265.352C81.7896 284.326 93.8474 301.026 105.762 302.613C107.383 302.854 109.037 302.766 110.623 302.355C112.21 301.943 113.697 301.216 114.997 300.217C112.778 301.29 110.287 301.665 107.851 301.295C95.8846 299.709 83.8756 283.021 81.0245 264.047C78.9729 250.64 82.1084 239.698 88.3236 234.963C80.738 238.676 76.7145 250.518 78.9385 265.352Z" fill="#FFCFE7"/>
<g style="mix-blend-mode:multiply" opacity="0.1">
<g style="mix-blend-mode:multiply" opacity="0.1">
<path d="M137.432 394.874C86.4656 347.432 57.7368 254.28 73.2636 186.833C80.7139 154.47 97.0088 133.906 117.565 126.525C94.2014 131.872 75.4328 153.139 67.2664 188.613C51.7423 256.047 80.4684 349.211 131.432 396.666C157.935 421.367 185.225 428.818 207.505 420.807C186.43 425.589 161.593 417.418 137.432 394.874Z" fill="#423734"/>
</g>
</g>
<path d="M193.653 150.656C164.81 123.785 135.056 117.334 111.814 129.016C133.88 121.662 160.708 129.276 186.769 153.555C237.696 201.001 266.473 294.164 250.947 361.61C244.207 390.887 230.241 410.485 212.432 419.436C233.523 412.41 250.277 391.694 257.865 358.733C273.34 291.287 244.614 198.123 193.653 150.656Z" fill="#FFD9E8"/>
<path d="M219.093 180.649C211.742 169.746 203.21 159.688 193.653 150.656C164.81 123.785 135.056 117.334 111.814 129.016C133.88 121.662 160.708 129.276 186.769 153.555C197.138 163.4 206.303 174.44 214.072 186.442C215.64 184.422 217.316 182.488 219.093 180.649V180.649Z" fill="#FF7BC3"/>
<path d="M259.71 287.61C257.889 291.039 255.876 294.362 253.68 297.564C256.152 319.97 255.442 341.862 250.898 361.599C244.158 390.876 230.192 410.474 212.384 419.425C233.474 412.398 250.228 391.682 257.816 358.721C262.84 336.898 263.204 312.383 259.71 287.61Z" fill="#FF7BC3"/>
<path d="M187.662 152.411C156.535 123.409 124.304 118.173 100.397 133.864C124.083 119.804 155.345 125.563 185.576 153.717C236.536 201.184 265.265 294.335 249.738 361.782C243.695 388.033 231.845 406.474 216.589 416.501C232.836 406.856 245.496 387.908 251.815 360.461C267.351 293.03 238.622 199.878 187.662 152.411Z" fill="#FFCFE7"/>
<path d="M251.1 132.565C228.901 111.873 206.125 103.29 186.227 105.748C205.465 104.371 227.23 113.107 248.381 132.825C299.354 180.295 328.083 273.446 312.556 340.893C303.794 378.953 282.814 400.674 257.037 403.898C284.05 401.947 306.201 380.046 315.272 340.645C330.792 273.171 302.063 180.019 251.1 132.565Z" fill="#FFCFE7"/>
<path d="M379.109 413.606C358.642 401.787 325.564 401.723 305.226 413.465C284.888 425.208 285.003 444.305 305.456 456.124C325.909 467.943 359.001 467.995 379.339 456.265C399.677 444.535 399.575 425.425 379.109 413.606Z" fill="#934CE5"/>
<path d="M407.403 291.807H277.162L290.132 434.264H394.446L407.403 291.807Z" fill="#934CE5"/>
<path d="M333.277 291.807H277.162L290.081 433.714C289.646 441.785 294.763 449.946 305.431 456.124C315.664 461.995 328.864 464.95 342.142 465.078L333.277 291.807Z" fill="#773ACE"/>
<path d="M293.88 343.241C320.742 358.769 364.232 358.846 390.992 343.407C395.729 340.769 399.999 337.368 403.63 333.34L406.52 301.515C404.029 297.792 400.934 294.511 397.362 291.807H286.704C283.321 294.416 280.383 297.556 278.006 301.106L280.897 332.841C284.621 337 289.008 340.514 293.88 343.241V343.241Z" fill="#773ACE"/>
<path d="M394.138 270.727C365.32 254.098 318.746 253.996 290.107 270.535C261.467 287.074 261.62 314.025 290.439 330.654C319.258 347.283 365.831 347.385 394.471 330.846C423.111 314.307 422.957 287.355 394.138 270.727Z" fill="#D5D4FF"/>
<path d="M322.277 318.592C294.443 302.526 293.356 276.905 319.105 260.276C308.938 262.039 299.14 265.499 290.119 270.509C261.48 287.036 261.633 314 290.452 330.628C319.271 347.257 365.844 347.36 394.484 330.82C395.456 330.258 396.403 329.669 397.323 329.081C371.818 333.826 342.615 330.36 322.277 318.592Z" fill="#AEAEFF"/>
<path d="M390.685 264.101C363.823 248.751 320.332 248.751 293.573 263.935C266.814 279.118 266.98 303.959 293.88 319.295C320.78 334.632 364.232 334.722 390.992 319.475C417.751 304.227 417.598 279.45 390.685 264.101Z" fill="#D5D4FF"/>
<path d="M397.643 315.241C370.909 330.667 336.654 318.733 309.754 303.204C286.461 289.76 274.041 281.037 290.887 265.738C266.89 281.254 267.914 305.161 293.88 320.127C320.742 335.656 364.232 335.732 390.992 320.293C394.341 318.392 397.476 316.136 400.342 313.565C399.472 314.141 398.577 314.703 397.643 315.241Z" fill="#AEAEFF"/>
<path d="M388.357 255.505C362.774 240.718 321.369 240.654 295.927 255.339C270.485 270.023 270.613 293.917 296.221 308.704C321.829 323.491 363.196 323.555 388.651 308.87C414.106 294.186 413.952 270.241 388.357 255.505Z" fill="#FFF3F5"/>
<g style="mix-blend-mode:overlay" opacity="0.5">
<path d="M379.339 449.997C359.001 461.74 325.922 461.676 305.456 449.856C296.579 444.74 291.539 438.229 290.337 431.552C288.764 440.301 293.803 449.396 305.456 456.124C325.922 467.943 359.001 467.995 379.339 456.265C390.851 449.613 395.801 440.608 394.241 431.961C393.051 438.523 388.101 444.945 379.339 449.997Z" fill="#FFF9E1"/>
</g>
<g style="mix-blend-mode:overlay" opacity="0.5">
<path d="M382.741 400.06C360.536 412.851 324.426 412.851 302.079 399.919C292.384 394.317 286.883 387.217 285.566 379.926C283.852 389.481 289.403 399.408 302.079 406.788C324.426 419.695 360.536 419.759 382.741 406.942C395.315 399.676 400.726 389.852 399.012 380.348C397.746 387.537 392.309 394.547 382.741 400.06Z" fill="#FFF9E1"/>
</g>
<path d="M391.478 319.18C364.744 334.415 321.253 334.338 294.353 319.001C277.916 309.625 271.482 296.731 275.077 284.618C270.421 297.166 276.676 310.789 293.829 320.574C320.691 335.924 364.181 335.988 390.953 320.741C401.34 314.818 407.659 307.451 409.936 299.763C407.288 306.888 401.161 313.654 391.478 319.18Z" fill="#D5D4FF"/>
<path d="M386.029 257.129C362.365 243.468 324.131 243.404 300.621 256.976C277.111 270.548 277.238 292.625 300.89 306.287C324.541 319.948 362.787 320.012 386.297 306.44C409.808 292.868 409.68 270.791 386.029 257.129Z" fill="#D5D4FF"/>
<path d="M298.805 259.061C322.302 245.489 360.548 245.566 384.2 259.227C402.645 269.882 406.789 285.654 396.556 298.509C409.015 285.309 405.51 268.373 386.029 257.129C362.365 243.468 324.132 243.404 300.621 256.976C296.006 259.531 291.91 262.928 288.546 266.992C291.564 263.866 295.019 261.194 298.805 259.061Z" fill="#AEAEFF"/>
<path d="M311.084 265.124C328.621 255.006 357.133 255.045 374.824 265.239C388.587 273.195 391.67 284.976 384.033 294.57C393.333 284.708 390.71 272.083 376.179 263.692C358.527 253.458 329.99 253.458 312.453 263.564C309.029 265.479 305.992 268.017 303.499 271.047C305.729 268.717 308.284 266.723 311.084 265.124V265.124Z" fill="#AEAEFF"/>
<g style="mix-blend-mode:multiply" opacity="0.3">
<path d="M344.022 269.576L276.944 282.034C276.912 285.288 277.602 288.507 278.965 291.462L346.491 276.726L344.022 269.576Z" fill="#D85666"/>
</g>
<path d="M357.197 162.538H357.056C357.402 161.604 356.928 160.581 355.662 159.839C354.542 159.271 353.304 158.975 352.049 158.975C350.793 158.975 349.555 159.271 348.435 159.839C347.245 160.529 346.785 161.463 347.015 162.397L340.044 273.477C339.965 274.007 340.068 274.547 340.335 275.012C340.602 275.476 341.018 275.836 341.515 276.035C342.653 276.613 343.91 276.914 345.186 276.914C346.462 276.914 347.72 276.613 348.857 276.035C350.136 275.293 350.597 274.257 350.251 273.298L357.197 162.538Z" fill="#FFEACC"/>
<path d="M345.135 276.7L352.528 159.02C351.113 158.914 349.696 159.201 348.435 159.852C347.245 160.542 346.785 161.476 347.015 162.41L340.044 273.49C339.965 274.019 340.068 274.56 340.335 275.024C340.602 275.489 341.018 275.849 341.515 276.048C342.625 276.639 343.865 276.942 345.122 276.931C345.122 276.931 345.122 276.739 345.135 276.7Z" fill="#FCE0BB"/>
<path d="M355.112 163.676C356.801 162.704 356.801 161.118 355.112 160.159C354.168 159.676 353.122 159.424 352.061 159.424C351.001 159.424 349.955 159.676 349.011 160.159C347.322 161.118 347.335 162.717 349.011 163.676C349.955 164.159 351.001 164.411 352.061 164.411C353.122 164.411 354.168 164.159 355.112 163.676V163.676Z" fill="#D8B88D"/>
<g style="mix-blend-mode:overlay" opacity="0.5">
<path d="M361.111 421.498C362.736 442.54 379.121 439.342 395.494 417.878L396.108 417.047L403.08 340.439C383.394 348.562 358.962 393.766 361.111 421.498Z" fill="#FFF9E1"/>
</g>
<g style="mix-blend-mode:overlay" opacity="0.5">
<path d="M305.917 411.93C305.84 433.266 297.833 434.558 288.776 416.791C288.661 416.561 281.767 340.439 281.767 340.439C291.974 344.136 306.019 383.636 305.917 411.93Z" fill="#FFF9E1"/>
</g>
<g style="mix-blend-mode:multiply" opacity="0.3">
<path d="M351.697 250.452C350.261 251.169 348.678 251.542 347.073 251.542C345.468 251.542 343.885 251.169 342.449 250.452C342.13 250.264 341.83 250.046 341.553 249.8L340.837 261.172C340.759 261.701 340.861 262.242 341.128 262.706C341.395 263.171 341.811 263.531 342.308 263.73C343.446 264.307 344.703 264.608 345.979 264.608C347.255 264.608 348.513 264.307 349.65 263.73C350.929 263.001 351.39 261.965 351.045 261.005L351.697 250.452Z" fill="#D85666"/>
</g>
<g style="mix-blend-mode:multiply" opacity="0.3">
<path d="M353.449 221.493C352.011 222.209 350.426 222.582 348.819 222.582C347.212 222.582 345.627 222.209 344.188 221.493C343.867 221.309 343.571 221.086 343.306 220.828L342.577 232.212C342.506 232.743 342.613 233.282 342.882 233.745C343.15 234.208 343.565 234.568 344.06 234.77C345.199 235.344 346.456 235.643 347.731 235.643C349.006 235.643 350.264 235.344 351.403 234.77C352.682 234.028 353.142 232.992 352.797 232.033L353.449 221.493Z" fill="#D85666"/>
</g>
<g style="mix-blend-mode:multiply" opacity="0.3">
<path d="M355.406 190.18C353.964 190.889 352.376 191.253 350.768 191.242C349.161 191.231 347.578 190.845 346.145 190.116C345.823 189.933 345.523 189.714 345.25 189.463L344.546 200.848C344.466 201.378 344.567 201.919 344.834 202.384C345.102 202.849 345.519 203.209 346.017 203.406C347.155 203.984 348.413 204.285 349.689 204.285C350.964 204.285 352.222 203.984 353.36 203.406C354.639 202.664 355.099 201.628 354.754 200.669L355.406 190.18Z" fill="#D85666"/>
</g>
<path d="M461.836 422.336L347.587 356.378L461.859 290.746L576.108 356.703L461.836 422.336Z" fill="#EF3C67"/>
<path d="M483.281 292.74C486.619 300.761 484.927 308.968 479.502 311.286C474.077 313.605 466.983 308.968 463.644 300.877C462.109 297.71 461.49 294.176 461.859 290.676C462.035 288.939 462.634 287.272 463.604 285.821C464.574 284.37 465.886 283.179 467.423 282.353C472.779 280.081 479.942 284.741 483.281 292.74Z" fill="#EF3C67"/>
<path d="M505.908 305.908C509.246 313.929 507.554 322.252 502.129 324.455C496.704 326.657 489.61 322.136 486.271 314.045C482.933 305.954 484.625 297.817 490.05 295.498C495.475 293.18 502.57 297.817 505.908 305.908Z" fill="#C8B7F9"/>
<path d="M528.79 319.656C532.129 327.654 530.436 336 525.011 338.203C519.586 340.405 512.492 335.884 509.154 327.793C507.608 324.415 506.991 320.686 507.369 316.99C507.536 315.322 508.134 313.726 509.106 312.36C510.078 310.994 511.389 309.905 512.91 309.2C518.335 306.974 525.452 311.634 528.79 319.656Z" fill="#EF3C67"/>
<path d="M551.417 332.731C554.756 340.729 553.063 348.96 547.638 351.278C542.214 353.596 535.119 348.96 531.781 340.869C528.442 332.778 530.135 324.64 535.56 322.322C540.985 320.003 548.079 324.71 551.417 332.731Z" fill="#C8B7F9"/>
<path d="M574.3 345.807C577.638 353.805 575.946 362.035 570.521 364.354C565.096 366.672 558.002 362.035 554.663 353.944C553.169 350.609 552.578 346.939 552.948 343.303C553.081 341.614 553.656 339.989 554.617 338.593C555.577 337.197 556.889 336.079 558.419 335.351C563.844 333.125 570.961 337.785 574.3 345.807Z" fill="#EF3C67"/>
<path d="M440.322 293.134C436.983 301.132 438.676 309.362 444.101 311.681C449.526 313.999 456.643 309.362 459.981 301.271C461.527 297.975 462.152 294.322 461.79 290.699C461.604 289.017 461.002 287.406 460.039 286.014C459.076 284.622 457.781 283.491 456.272 282.724C450.847 280.406 443.73 285.043 440.322 293.134Z" fill="#C8B7F9"/>
<path d="M417.764 306.209C414.426 314.207 416.118 322.438 421.543 324.756C426.968 327.074 434.085 322.438 437.424 314.347C440.762 306.256 439.07 298.118 433.645 295.8C428.22 293.481 421.102 298.188 417.764 306.209Z" fill="#EF3C67"/>
<path d="M394.882 320.027C391.543 328.048 393.236 336.371 398.661 338.573C404.086 340.776 411.203 336.255 414.541 328.164C416.045 324.602 416.627 320.719 416.234 316.874C416.114 315.258 415.535 313.711 414.566 312.413C413.597 311.115 412.277 310.121 410.762 309.548C405.338 307.368 398.243 312.028 394.882 320.027Z" fill="#C8B7F9"/>
<path d="M372.255 333.102C368.916 341.124 370.609 349.447 376.034 351.649C381.459 353.851 388.576 349.331 391.914 341.263C395.253 333.195 393.56 325.034 388.135 322.716C382.71 320.398 375.593 325.104 372.255 333.102Z" fill="#EF3C67"/>
<path d="M349.373 346.178C346.034 354.199 347.726 362.522 353.151 364.725C358.576 366.927 365.694 362.406 369.032 354.338C370.587 350.808 371.14 346.918 370.632 343.094C370.447 341.506 369.855 339.992 368.912 338.701C367.97 337.409 366.709 336.383 365.253 335.722C359.828 333.519 352.734 338.179 349.373 346.178Z" fill="#C8B7F9"/>
<path d="M348.26 360.876L370.864 344.508L387.162 479.112L367.78 491.098L348.26 360.876Z" fill="#C8B7F9"/>
<path d="M393.444 330.645L406.01 469.746L424.696 457.552L416.234 316.943L393.444 330.645Z" fill="#C8B7F9"/>
<path d="M439.07 304.841L443.173 445.589L462.23 437.057L461.998 293.945L439.07 304.841Z" fill="#C8B7F9"/>
<path d="M484.556 305.444L480.313 448.093L499.393 458.386L507.369 317.036L484.556 305.444Z" fill="#C8B7F9"/>
<path d="M530.274 330.645L518.195 469.352L536.951 479.947L552.948 343.349L530.274 330.645Z" fill="#C8B7F9"/>
<path d="M367.085 358.048C367.862 355.335 369.616 353.006 372.01 351.512C374.404 350.017 377.266 349.463 380.044 349.957C384.89 350.698 391.219 347.638 397.038 343.882C394.72 334.284 403.182 327.468 411.922 332.94C416.327 330.065 423.514 308.365 435.245 317.894C437.563 312.886 450.314 303.983 450.314 303.983C450.314 303.983 448.32 295.962 454.232 292.531C455.432 291.791 456.865 291.526 458.25 291.788C459.635 292.049 460.873 292.819 461.72 293.945C467.539 290.514 472.246 295.035 470.715 301.155C468.907 308.458 490.329 303.844 490.329 303.844C490.329 303.844 494.177 296.171 498.281 305.467C499.186 305.161 500.163 305.142 501.08 305.412C501.996 305.682 502.806 306.229 503.4 306.978C503.994 307.726 504.342 308.64 504.397 309.594C504.451 310.547 504.21 311.495 503.706 312.306C512.191 309.663 514.532 315.738 512.979 321.255C524.339 320.142 527.191 332.546 527.191 332.546L534.725 345.83C534.725 345.83 540.15 342.723 549.261 347.754C557.747 352.507 556.24 362.568 556.24 362.568C556.24 362.568 544.949 399.059 509.873 415.242C474.796 431.424 415.353 435.944 396.969 425.28C378.584 414.616 365.277 366 365.277 366L367.085 358.048Z" fill="#FFCEB8"/>
<path d="M478.644 321.696C478.402 317.226 476.51 313.005 473.335 309.849C474.175 308.828 475.288 308.068 476.545 307.658C477.801 307.247 479.149 307.203 480.429 307.531C482.039 307.986 483.457 308.954 484.466 310.29C485.474 311.625 486.019 313.253 486.016 314.926C486.889 314.5 487.841 314.261 488.811 314.225C489.781 314.19 490.748 314.357 491.65 314.718C492.778 315.195 493.766 315.952 494.521 316.918C495.275 317.883 495.771 319.025 495.962 320.235C500.599 318.357 503.636 323.249 505.236 327.19C510.197 323.156 520.49 324.524 521.951 331.132C520.683 330.442 519.206 330.244 517.801 330.575C516.638 330.844 515.551 331.372 514.62 332.118C513.689 332.865 512.938 333.811 512.423 334.887C511.583 333.819 510.538 332.928 509.351 332.267C508.164 331.606 506.856 331.188 505.506 331.037C504.155 330.886 502.788 331.005 501.484 331.388C500.18 331.77 498.965 332.408 497.91 333.264C496.101 329.856 488.636 327.399 486.156 327.399C483.557 327.529 480.993 328.053 478.551 328.952C478.843 326.544 478.874 324.111 478.644 321.696V321.696Z" fill="#F2B19E"/>
<path d="M523.783 344.601C523.574 349.702 529.926 350.814 533.752 349.678C535.928 349.015 537.816 347.634 539.107 345.76C539.29 344.832 539.281 343.876 539.082 342.952C538.883 342.027 538.497 341.152 537.948 340.382C541.889 338.063 545.112 334.447 542.098 329.625C540.975 328.053 539.299 326.965 537.407 326.578C535.515 326.191 533.547 326.534 531.897 327.538C531.602 326.691 531.14 325.912 530.539 325.246C529.939 324.58 529.211 324.041 528.398 323.661C527.586 323.281 526.706 323.067 525.81 323.032C524.913 322.997 524.019 323.142 523.18 323.458C522.155 323.856 521.248 324.507 520.543 325.35C519.837 326.193 519.357 327.201 519.146 328.28C518.994 329.429 519.081 330.597 519.401 331.711C513.535 329.903 508.829 337.576 508.667 343.303C510.766 345.01 513.33 346.046 516.025 346.278C518.72 346.509 521.423 345.925 523.783 344.601V344.601Z" fill="#FFE0D2"/>
<path d="M521.951 350.374C522.209 351.276 522.684 352.1 523.335 352.775C523.985 353.45 524.792 353.955 525.684 354.246C527.42 354.628 529.221 354.618 530.953 354.217C532.686 353.816 534.307 353.034 535.699 351.927C537.587 350.377 538.786 348.144 539.037 345.714C537.747 347.588 535.859 348.969 533.682 349.632C529.857 350.768 523.504 349.632 523.713 344.555C521.371 345.876 518.687 346.468 516.006 346.253C513.325 346.038 510.769 345.027 508.667 343.349C508.648 344.056 508.703 344.763 508.829 345.459C510.151 352.09 517.245 353.527 521.951 350.374Z" fill="#F9C0AA"/>
<path d="M524.664 333.519C524.273 333.991 523.98 334.534 523.801 335.119C523.622 335.704 523.561 336.319 523.62 336.927C522.889 336.974 522.191 337.25 521.626 337.716C520.143 339.199 521.626 341.077 523.249 341.332C524.206 341.433 525.172 341.246 526.022 340.796C526.873 340.346 527.57 339.653 528.025 338.805C530.297 334.516 526.101 332.059 524.664 333.519Z" fill="#F9C0AA"/>
<path d="M389.851 357.654C389.642 362.754 395.995 363.89 399.82 362.731C402.001 362.076 403.891 360.693 405.175 358.813C405.358 357.884 405.349 356.929 405.15 356.004C404.951 355.079 404.565 354.205 404.016 353.434C407.957 351.116 411.18 347.499 408.166 342.677C407.043 341.106 405.367 340.018 403.475 339.631C401.583 339.244 399.615 339.587 397.965 340.59C397.667 339.754 397.206 338.984 396.61 338.325C396.013 337.667 395.293 337.133 394.489 336.754C393.686 336.375 392.815 336.158 391.928 336.116C391.04 336.074 390.153 336.208 389.318 336.51C388.306 336.918 387.413 337.573 386.72 338.415C386.028 339.258 385.558 340.261 385.353 341.332C385.201 342.481 385.288 343.65 385.608 344.763C379.743 342.955 375.037 350.629 374.874 356.355C376.96 358.033 379.498 359.052 382.165 359.283C384.832 359.514 387.507 358.947 389.851 357.654V357.654Z" fill="#FFE0D2"/>
<path d="M388.089 363.426C388.347 364.328 388.822 365.152 389.473 365.828C390.123 366.503 390.93 367.008 391.822 367.298C393.558 367.685 395.359 367.678 397.093 367.277C398.826 366.876 400.447 366.091 401.837 364.98C403.725 363.429 404.924 361.196 405.175 358.766C403.891 360.647 402.001 362.03 399.82 362.684C395.995 363.844 389.642 362.684 389.851 357.607C387.509 358.929 384.825 359.52 382.144 359.305C379.463 359.09 376.907 358.079 374.805 356.402C374.786 357.109 374.84 357.816 374.967 358.511C376.289 365.142 383.383 366.579 388.089 363.426Z" fill="#F9C0AA"/>
<path d="M390.801 346.572C390.019 347.518 389.644 348.735 389.758 349.957C389.027 350.003 388.329 350.279 387.764 350.745C386.281 352.229 387.764 354.106 389.387 354.361C390.344 354.462 391.31 354.276 392.16 353.825C393.011 353.375 393.708 352.682 394.163 351.834C396.435 347.638 392.123 345.134 390.801 346.572Z" fill="#F9C0AA"/>
<path d="M449.595 376.27C449.804 381.37 443.451 382.483 439.603 381.347C437.422 380.693 435.532 379.31 434.248 377.429C434.068 376.499 434.08 375.543 434.284 374.618C434.487 373.693 434.877 372.819 435.43 372.051C431.489 369.732 428.266 366.116 431.257 361.293C432.384 359.721 434.064 358.632 435.96 358.245C437.855 357.858 439.828 358.202 441.481 359.207C441.776 358.363 442.237 357.586 442.836 356.922C443.435 356.258 444.161 355.72 444.971 355.34C445.78 354.96 446.657 354.746 447.551 354.709C448.445 354.672 449.337 354.814 450.175 355.127C451.202 355.523 452.113 356.173 452.823 357.017C453.532 357.86 454.017 358.868 454.232 359.949C454.384 361.098 454.297 362.266 453.977 363.38C459.819 361.572 464.525 369.245 464.688 374.972C462.592 376.677 460.033 377.712 457.341 377.944C454.65 378.175 451.951 377.592 449.595 376.27V376.27Z" fill="#FFE0D2"/>
<path d="M451.38 382.043C451.123 382.944 450.648 383.769 449.997 384.444C449.346 385.119 448.539 385.624 447.648 385.914C445.911 386.302 444.11 386.294 442.377 385.893C440.643 385.492 439.022 384.707 437.632 383.596C435.736 382.05 434.528 379.816 434.271 377.383C435.555 379.263 437.445 380.646 439.626 381.301C443.475 382.437 449.827 381.301 449.618 376.224C451.957 377.543 454.637 378.133 457.314 377.919C459.991 377.704 462.543 376.694 464.641 375.018C464.667 375.724 464.621 376.431 464.502 377.128C463.181 383.758 456.063 385.196 451.38 382.043Z" fill="#F9C0AA"/>
<path d="M448.668 365.188C449.432 366.116 449.806 367.305 449.711 368.503C450.435 368.55 451.125 368.826 451.682 369.292C453.165 370.775 451.798 372.653 450.059 372.908C449.105 373.011 448.142 372.824 447.295 372.374C446.448 371.923 445.755 371.229 445.306 370.381C443.011 366.185 447.277 363.867 448.668 365.188Z" fill="#F9C0AA"/>
<path d="M435.175 349.817C442.849 356.309 446.442 349.702 447.022 346.78C447.489 345.221 447.429 343.551 446.85 342.03C446.272 340.508 445.208 339.22 443.822 338.365C444.429 337.562 444.869 336.646 445.116 335.67C445.363 334.695 445.412 333.68 445.26 332.685C445.192 332.526 445.114 332.371 445.028 332.221C444.124 330.973 442.773 330.122 441.257 329.846C439.741 329.57 438.177 329.889 436.891 330.737C438.745 325.938 432.764 321.719 428.313 322.739C427.302 322.95 426.347 323.371 425.509 323.974C424.672 324.577 423.97 325.35 423.45 326.241C422.93 327.133 422.603 328.124 422.49 329.15C422.377 330.176 422.481 331.215 422.795 332.198C418.39 330.714 413.336 332.314 412.154 337.623C411.961 338.574 411.963 339.554 412.162 340.504C412.36 341.454 412.75 342.353 413.308 343.147C413.865 343.941 414.579 344.613 415.405 345.122C416.231 345.631 417.152 345.967 418.112 346.108C417.932 346.845 417.914 347.611 418.058 348.355C418.202 349.1 418.505 349.804 418.946 350.42C424.255 353.086 429.194 351.95 435.175 349.817Z" fill="#FFE0D2"/>
<path d="M426.551 353.504C427.694 353.352 428.814 353.064 429.889 352.646C430.037 354.401 430.711 356.071 431.824 357.436C432.937 358.801 434.436 359.798 436.125 360.296C440.878 361.456 445.608 357.538 447.995 353.805C449.321 351.931 450.12 349.736 450.307 347.448C450.495 345.16 450.065 342.864 449.062 340.799C448.272 339.418 447.127 338.274 445.747 337.484C446.228 335.875 446.053 334.142 445.26 332.662C445.415 333.66 445.367 334.68 445.121 335.659C444.874 336.639 444.432 337.559 443.822 338.365C445.212 339.221 446.28 340.513 446.859 342.04C447.437 343.566 447.495 345.241 447.022 346.804C446.442 349.725 442.849 356.332 435.175 349.841C429.194 351.974 424.255 353.11 418.946 350.42C419.015 350.549 419.093 350.673 419.178 350.791C420.07 351.839 421.217 352.64 422.508 353.115C423.8 353.59 425.192 353.724 426.551 353.504V353.504Z" fill="#F9C0AA"/>
<path d="M435.013 338.666C431.976 334.818 429.147 338.063 429.055 338.968C429.074 339.499 429.204 340.021 429.435 340.499C429.667 340.978 429.995 341.404 430.399 341.75C430.728 342.157 431.14 342.49 431.608 342.726C432.076 342.962 432.588 343.095 433.112 343.117C433.604 343.069 434.075 342.89 434.474 342.597C434.874 342.305 435.187 341.91 435.381 341.455C435.576 341 435.644 340.501 435.579 340.01C435.514 339.519 435.319 339.055 435.013 338.666Z" fill="#F9C0AA"/>
<path d="M424.858 328.697C424.775 329.153 424.8 329.621 424.933 330.065C425.066 330.508 425.303 330.913 425.623 331.247C425.756 331.36 425.91 331.444 426.076 331.495C426.242 331.547 426.417 331.564 426.59 331.547C426.763 331.53 426.931 331.478 427.083 331.395C427.236 331.311 427.37 331.198 427.478 331.062C427.697 330.691 427.794 330.262 427.756 329.833C427.743 329.081 428.017 328.351 428.521 327.793C429.008 327.283 429.727 325.289 429.031 324.756C427.408 323.458 425.09 326.773 424.858 328.697Z" fill="#FFEEE6"/>
<path d="M420.175 333.867C419.192 333.798 418.208 333.974 417.31 334.378C416.412 334.783 415.628 335.404 415.028 336.186C414.078 337.808 415.028 341.471 417.463 340.428C417.914 340.181 418.278 339.8 418.506 339.339C418.732 338.818 419.045 338.339 419.433 337.924C420.198 337.229 420.662 337.646 421.566 337.646C422.071 337.701 422.577 337.561 422.982 337.255C423.387 336.949 423.66 336.5 423.745 336C423.931 334.006 421.983 333.914 420.175 333.867Z" fill="#FFEEE6"/>
<path d="M489.911 354.431C482.237 360.922 478.644 354.431 478.064 351.394C477.603 349.838 477.666 348.173 478.244 346.656C478.822 345.14 479.883 343.855 481.264 343.001C480.637 342.199 480.179 341.278 479.916 340.294C479.653 339.31 479.591 338.283 479.734 337.275C479.802 337.124 479.879 336.977 479.965 336.835C480.866 335.582 482.217 334.727 483.735 334.451C485.252 334.174 486.818 334.497 488.103 335.351C486.248 330.552 492.253 326.332 496.681 327.329C497.693 327.537 498.65 327.956 499.49 328.558C500.33 329.16 501.033 329.933 501.553 330.826C502.074 331.718 502.401 332.711 502.512 333.738C502.623 334.766 502.516 335.805 502.199 336.788C503.247 336.334 504.383 336.118 505.526 336.155C506.668 336.191 507.788 336.481 508.805 337.001C509.822 337.522 510.711 338.262 511.409 339.167C512.107 340.072 512.595 341.12 512.84 342.236C513.033 343.186 513.03 344.165 512.831 345.113C512.633 346.062 512.242 346.959 511.685 347.752C511.127 348.544 510.413 349.214 509.587 349.721C508.761 350.227 507.841 350.56 506.882 350.698C507.061 351.435 507.08 352.201 506.936 352.946C506.792 353.69 506.489 354.394 506.047 355.011C500.831 357.7 495.962 356.564 489.911 354.431Z" fill="#FFDAC7"/>
<path d="M498.536 358.14C497.392 357.98 496.271 357.684 495.197 357.259C495.061 359.014 494.396 360.686 493.291 362.055C492.186 363.425 490.693 364.428 489.007 364.933C484.37 366.069 479.525 362.151 477.137 358.442C475.792 356.556 474.978 354.342 474.782 352.033C474.587 349.725 475.016 347.406 476.024 345.32C476.815 343.946 477.96 342.809 479.34 342.028C478.866 340.451 479.006 338.753 479.734 337.275C479.591 338.284 479.653 339.31 479.916 340.294C480.179 341.278 480.637 342.199 481.264 343.002C479.879 343.857 478.815 345.145 478.236 346.666C477.658 348.188 477.597 349.858 478.065 351.417C478.644 354.361 482.238 360.946 489.911 354.454C495.893 356.587 500.831 357.723 506.14 355.034C506.071 355.163 505.994 355.286 505.908 355.405C505.019 356.457 503.873 357.262 502.581 357.741C501.29 358.22 499.896 358.358 498.536 358.14Z" fill="#F9C0AA"/>
<path d="M490.074 343.28C493.111 339.454 495.939 342.677 496.055 343.604C495.985 344.676 495.493 345.677 494.687 346.386C494.36 346.794 493.948 347.126 493.479 347.358C493.011 347.59 492.497 347.718 491.975 347.731C491.482 347.683 491.011 347.503 490.612 347.211C490.213 346.918 489.899 346.524 489.705 346.069C489.511 345.613 489.442 345.114 489.507 344.624C489.572 344.133 489.768 343.669 490.074 343.28Z" fill="#F9C0AA"/>
<path d="M500.228 333.311C500.314 333.766 500.289 334.235 500.156 334.679C500.023 335.123 499.785 335.528 499.463 335.861C499.332 335.976 499.178 336.063 499.011 336.117C498.845 336.17 498.669 336.188 498.495 336.171C498.321 336.154 498.153 336.101 498 336.015C497.848 335.93 497.714 335.814 497.608 335.675C497.397 335.302 497.3 334.875 497.33 334.447C497.337 333.702 497.064 332.982 496.565 332.43C496.078 331.897 495.359 329.903 496.055 329.37C497.678 328.094 500.019 331.271 500.228 333.311Z" fill="#FFEEE6"/>
<path d="M504.911 338.481C505.894 338.407 506.88 338.581 507.779 338.986C508.678 339.391 509.461 340.014 510.058 340.799C511.008 342.399 510.058 346.085 507.74 345.018C507.283 344.781 506.911 344.409 506.673 343.952C506.453 343.421 506.139 342.934 505.746 342.515C504.981 341.819 504.517 342.236 503.613 342.236C503.111 342.297 502.604 342.163 502.199 341.861C501.793 341.559 501.519 341.112 501.434 340.614C501.155 338.62 503.103 338.527 504.911 338.481Z" fill="#FFEEE6"/>
<path d="M474.958 307.67C467.284 314.161 463.691 307.67 463.111 304.609C462.642 303.048 462.704 301.375 463.287 299.852C463.87 298.329 464.941 297.043 466.334 296.194C465.729 295.39 465.288 294.474 465.037 293.499C464.787 292.525 464.731 291.51 464.873 290.514C464.873 290.352 465.012 290.189 465.105 290.05C466.005 288.798 467.356 287.943 468.874 287.666C470.392 287.389 471.958 287.712 473.242 288.566C471.388 283.767 477.415 279.548 481.82 280.545C482.832 280.759 483.788 281.182 484.626 281.788C485.465 282.393 486.167 283.167 486.689 284.06C487.211 284.953 487.54 285.945 487.656 286.972C487.771 288 487.671 289.04 487.361 290.027C488.408 289.573 489.543 289.356 490.684 289.391C491.824 289.426 492.943 289.714 493.96 290.232C494.977 290.75 495.867 291.487 496.565 292.39C497.264 293.292 497.755 294.338 498.002 295.452C498.192 296.404 498.186 297.385 497.984 298.335C497.783 299.285 497.391 300.184 496.832 300.977C496.272 301.771 495.557 302.443 494.73 302.951C493.903 303.46 492.982 303.796 492.021 303.937C492.217 304.66 492.256 305.417 492.137 306.157C492.017 306.896 491.74 307.602 491.325 308.226C485.877 310.939 480.939 309.803 474.958 307.67Z" fill="#FFDAC7"/>
<path d="M483.605 311.356C482.459 311.208 481.331 310.936 480.244 310.545C480.099 312.301 479.426 313.972 478.313 315.338C477.199 316.703 475.698 317.7 474.007 318.195C469.371 319.354 464.525 315.413 462.137 311.704C460.831 309.806 460.054 307.593 459.887 305.295C459.72 302.997 460.168 300.695 461.187 298.628C461.977 297.254 463.122 296.117 464.502 295.336C464.031 293.727 464.205 291.997 464.989 290.514C464.847 291.51 464.903 292.525 465.153 293.499C465.404 294.474 465.844 295.39 466.449 296.194C465.057 297.043 463.986 298.329 463.403 299.852C462.82 301.375 462.758 303.048 463.227 304.61C463.807 307.554 467.4 314.161 475.074 307.67C481.055 309.803 485.993 310.939 491.302 308.249L491.047 308.62C490.155 309.687 488.997 310.502 487.692 310.982C486.386 311.462 484.977 311.591 483.605 311.356V311.356Z" fill="#F9C0AA"/>
<path d="M475.097 296.634C478.134 292.786 480.963 296.008 481.078 296.936C480.99 297.964 480.508 298.919 479.734 299.602C479.409 300.012 478.997 300.346 478.528 300.578C478.059 300.811 477.545 300.936 477.021 300.946C476.547 300.894 476.094 300.719 475.708 300.437C475.323 300.156 475.017 299.778 474.823 299.342C474.628 298.906 474.551 298.427 474.599 297.952C474.647 297.477 474.819 297.023 475.097 296.634V296.634Z" fill="#F9C0AA"/>
<path d="M485.275 286.549C485.364 287.001 485.341 287.468 485.208 287.909C485.075 288.349 484.835 288.75 484.51 289.077C484.38 289.193 484.227 289.282 484.062 289.337C483.896 289.392 483.721 289.413 483.547 289.398C483.373 289.382 483.204 289.332 483.051 289.248C482.897 289.165 482.763 289.052 482.655 288.914C482.459 288.535 482.363 288.112 482.377 287.685C482.39 286.933 482.116 286.204 481.612 285.645C481.125 285.043 480.429 283.142 481.102 282.585C482.724 281.31 485.066 284.486 485.275 286.549Z" fill="#FFEEE6"/>
<path d="M489.958 291.719C490.944 291.65 491.931 291.826 492.833 292.23C493.735 292.635 494.523 293.256 495.128 294.038C496.055 295.661 495.128 299.324 492.809 298.28C492.351 298.034 491.979 297.654 491.743 297.191C491.531 296.662 491.216 296.181 490.816 295.777C490.05 295.058 489.587 295.498 488.706 295.498C488.201 295.553 487.695 295.413 487.29 295.107C486.885 294.801 486.612 294.352 486.527 293.852C486.202 291.858 488.173 291.766 489.958 291.719Z" fill="#FFEEE6"/>
<path d="M441.411 316.665C443.73 321.186 449.294 324.988 453.884 321.093C458.474 317.198 458.312 312.307 452.771 306.256C453.635 305.342 454.261 304.229 454.593 303.016C454.924 301.803 454.952 300.527 454.672 299.301C453.83 298.407 452.812 297.696 451.682 297.214C450.346 296.64 448.882 296.432 447.44 296.611C445.997 296.79 444.629 297.351 443.475 298.234C442.403 299.019 441.549 300.064 440.994 301.271C439.886 300.536 438.591 300.134 437.261 300.112C436.081 300.113 434.926 300.46 433.941 301.111C432.956 301.763 432.184 302.689 431.721 303.775C431.26 304.75 431.126 305.847 431.339 306.904C431.552 307.96 432.101 308.92 432.903 309.64C433.29 309.955 433.71 310.227 434.155 310.452C432.527 311.926 431.475 313.931 431.187 316.109C431.187 316.109 431.187 316.271 431.187 316.34C434.34 318.056 438.397 318.983 441.411 316.665Z" fill="#FFDAC7"/>
<path d="M440.461 321.765C440.809 323.476 441.724 325.02 443.057 326.147C444.39 327.275 446.065 327.92 447.81 327.979C450.262 327.918 452.648 327.171 454.697 325.822C456.745 324.474 458.376 322.579 459.402 320.351C460.424 318.509 460.885 316.408 460.728 314.308C460.572 312.207 459.804 310.198 458.521 308.528C457.803 307.703 456.957 306.999 456.017 306.441C456.543 305.588 456.779 304.588 456.689 303.589C456.526 301.965 455.815 300.444 454.672 299.277C454.951 300.503 454.924 301.78 454.592 302.993C454.261 304.206 453.635 305.319 452.771 306.232C458.312 312.283 458.335 317.291 453.884 321.07C449.433 324.849 443.683 321.07 441.411 316.642C438.397 318.96 434.456 318.033 431.211 316.317C431.342 317.345 431.707 318.329 432.277 319.194C432.848 320.059 433.608 320.782 434.501 321.307C435.394 321.833 436.395 322.148 437.428 322.227C438.461 322.306 439.498 322.149 440.461 321.765Z" fill="#F9C0AA"/>
<path d="M446.581 305.606C446.31 305.49 446.018 305.431 445.724 305.431C445.429 305.431 445.137 305.49 444.866 305.606C443.874 305.417 442.847 305.538 441.926 305.953C441.005 306.368 440.235 307.056 439.719 307.925C438.189 310.243 440.391 312.167 442.756 312.167C445.121 312.167 448.111 310.66 448.158 308.041C448.173 307.523 448.031 307.013 447.749 306.578C447.468 306.143 447.06 305.804 446.581 305.606V305.606Z" fill="#F9C0AA"/>
<path d="M451.264 298.767C450.303 298.289 449.243 298.041 448.169 298.041C447.095 298.041 446.036 298.289 445.074 298.767C444.651 298.978 444.302 299.312 444.074 299.727C443.846 300.141 443.75 300.615 443.799 301.086C444.077 302.129 445.538 302.639 446.396 303.033C447.414 303.54 448.588 303.64 449.677 303.313C450.767 302.986 451.691 302.255 452.261 301.271C452.367 301.042 452.426 300.794 452.433 300.542C452.44 300.29 452.395 300.039 452.302 299.805C452.209 299.57 452.068 299.357 451.89 299.179C451.712 299.001 451.499 298.861 451.264 298.767V298.767Z" fill="#FFEEE6"/>
<path d="M439.672 302.917C438.096 301.039 434.271 302.917 433.923 303.752C433.785 304.099 433.75 304.479 433.824 304.846C433.899 305.212 434.078 305.549 434.34 305.815C435.082 306.441 435.824 305.977 436.543 305.653C437.261 305.328 438.49 305.514 439.278 304.865C439.578 304.65 439.785 304.329 439.858 303.968C439.931 303.607 439.865 303.232 439.672 302.917V302.917Z" fill="#FFEEE6"/>
<path d="M477.902 332.36C475.584 336.997 470.02 340.683 465.453 336.812C460.885 332.94 461.001 328.002 466.565 321.951C465.697 321.039 465.067 319.928 464.732 318.714C464.396 317.501 464.365 316.224 464.641 314.996C465.481 314.093 466.5 313.375 467.632 312.886C468.967 312.312 470.431 312.104 471.874 312.283C473.316 312.462 474.685 313.023 475.839 313.906C476.902 314.671 477.755 315.692 478.319 316.874C479.441 316.15 480.741 315.749 482.075 315.714C483.255 315.718 484.409 316.067 485.393 316.718C486.378 317.369 487.15 318.293 487.616 319.377C488.07 320.355 488.198 321.453 487.981 322.509C487.764 323.565 487.213 324.523 486.411 325.243C486.044 325.574 485.63 325.847 485.182 326.054C486.806 327.538 487.849 329.552 488.126 331.734V331.943C484.996 333.728 480.939 334.679 477.902 332.36Z" fill="#FFE0D2"/>
<path d="M478.876 337.484C478.518 339.192 477.597 340.731 476.26 341.854C474.923 342.976 473.248 343.617 471.503 343.674C469.052 343.61 466.668 342.862 464.619 341.514C462.571 340.166 460.94 338.272 459.912 336.046C458.893 334.202 458.436 332.1 458.597 329.999C458.757 327.899 459.529 325.891 460.816 324.223C461.519 323.401 462.348 322.696 463.273 322.136C462.779 321.314 462.552 320.358 462.624 319.401C462.809 317.809 463.519 316.324 464.641 315.181C464.365 316.409 464.396 317.687 464.732 318.9C465.067 320.113 465.697 321.225 466.565 322.136C461.001 328.187 461.001 333.195 465.453 336.997C469.904 340.799 475.653 336.997 477.902 332.546C480.939 334.864 484.996 333.937 488.126 332.221C487.966 333.23 487.58 334.191 486.998 335.031C486.417 335.871 485.653 336.569 484.765 337.075C483.877 337.58 482.887 337.879 481.867 337.95C480.848 338.021 479.825 337.861 478.876 337.484V337.484Z" fill="#F9C0AA"/>
<path d="M472.779 321.302C473.329 321.082 473.943 321.082 474.494 321.302C475.486 321.112 476.513 321.233 477.434 321.648C478.355 322.063 479.125 322.752 479.641 323.62C481.171 325.938 478.945 327.863 476.581 327.863C474.216 327.863 471.249 326.356 471.179 323.736C471.168 323.216 471.316 322.705 471.601 322.271C471.887 321.836 472.297 321.498 472.779 321.302V321.302Z" fill="#F9C0AA"/>
<path d="M468.142 314.463C469.104 313.985 470.163 313.736 471.237 313.736C472.311 313.736 473.37 313.985 474.332 314.463C475.074 314.973 475.839 315.807 475.584 316.781C475.329 317.755 473.845 318.334 472.987 318.728C471.981 319.24 470.82 319.354 469.733 319.05C468.647 318.745 467.715 318.042 467.122 317.082C467 316.846 466.931 316.586 466.917 316.321C466.903 316.056 466.946 315.79 467.042 315.543C467.139 315.295 467.287 315.071 467.476 314.885C467.666 314.698 467.893 314.555 468.142 314.463V314.463Z" fill="#FFEEE6"/>
<path d="M479.734 318.636C481.333 316.735 485.159 318.636 485.483 319.447C485.622 319.794 485.656 320.174 485.582 320.541C485.508 320.907 485.328 321.244 485.066 321.51C484.347 322.136 483.582 321.673 482.863 321.348C482.145 321.023 480.916 321.209 480.128 320.56C479.34 319.911 479.154 319.192 479.734 318.636Z" fill="#FFEEE6"/>
<path d="M513.651 367.507C515.97 372.143 521.534 375.829 526.124 371.958C530.715 368.086 530.552 363.148 525.011 357.097C525.877 356.185 526.504 355.072 526.836 353.858C527.167 352.645 527.194 351.368 526.912 350.142C526.072 349.239 525.054 348.521 523.922 348.032C522.586 347.458 521.122 347.25 519.68 347.429C518.238 347.609 516.869 348.169 515.715 349.052C514.652 349.818 513.799 350.838 513.234 352.02C512.119 351.299 510.828 350.899 509.502 350.861C508.31 350.869 507.148 351.227 506.158 351.89C505.169 352.554 504.397 353.494 503.938 354.593C503.489 355.583 503.373 356.692 503.607 357.754C503.841 358.815 504.412 359.772 505.236 360.482C505.623 360.797 506.043 361.069 506.488 361.293C504.855 362.774 503.803 364.788 503.52 366.973C503.52 366.973 503.52 367.112 503.52 367.182C506.58 368.898 510.638 369.825 513.651 367.507Z" fill="#FFE0D2"/>
<path d="M512.678 372.607C513.034 374.318 513.955 375.86 515.291 376.986C516.628 378.113 518.303 378.758 520.05 378.82C522.502 378.759 524.888 378.012 526.937 376.664C528.986 375.316 530.616 373.42 531.642 371.193C532.664 369.351 533.125 367.25 532.968 365.149C532.812 363.049 532.044 361.039 530.761 359.369C530.043 358.545 529.197 357.84 528.257 357.283C528.75 356.476 528.985 355.537 528.929 354.593C528.77 352.974 528.058 351.459 526.912 350.304C527.194 351.53 527.167 352.807 526.836 354.021C526.504 355.234 525.877 356.347 525.011 357.259C530.552 363.31 530.575 368.318 526.124 372.12C521.673 375.922 515.923 372.12 513.651 367.669C510.637 369.987 506.696 369.06 503.451 367.344C503.604 368.355 503.984 369.317 504.562 370.16C505.14 371.003 505.902 371.704 506.79 372.21C507.678 372.716 508.668 373.015 509.688 373.084C510.708 373.152 511.73 372.989 512.678 372.607Z" fill="#F9C0AA"/>
<path d="M518.798 356.448C518.531 356.333 518.243 356.273 517.952 356.273C517.661 356.273 517.373 356.333 517.106 356.448C516.11 356.26 515.081 356.382 514.157 356.797C513.233 357.211 512.458 357.898 511.936 358.766C510.429 361.085 512.631 363.009 514.996 363.009C517.361 363.009 520.328 361.502 520.398 358.882C520.411 358.362 520.266 357.849 519.98 357.414C519.694 356.979 519.281 356.642 518.798 356.448Z" fill="#F9C0AA"/>
<path d="M523.504 349.609C522.543 349.131 521.483 348.882 520.409 348.882C519.335 348.882 518.276 349.131 517.314 349.609C516.891 349.819 516.542 350.154 516.314 350.568C516.086 350.983 515.99 351.457 516.039 351.927C516.318 352.971 517.778 353.481 518.636 353.875C519.636 354.39 520.794 354.512 521.88 354.216C522.966 353.92 523.901 353.227 524.501 352.275C524.631 352.038 524.709 351.776 524.728 351.506C524.748 351.237 524.709 350.966 524.614 350.713C524.52 350.46 524.371 350.231 524.18 350.04C523.988 349.849 523.758 349.702 523.504 349.609V349.609Z" fill="#FFEEE6"/>
<path d="M511.913 353.782C510.313 351.881 506.488 353.782 506.163 354.593C506.025 354.941 505.99 355.321 506.065 355.687C506.139 356.054 506.318 356.39 506.58 356.657C507.299 357.283 508.064 356.819 508.899 356.494C509.733 356.17 510.846 356.355 511.634 355.706C511.913 355.479 512.097 355.155 512.148 354.798C512.2 354.442 512.116 354.079 511.913 353.782V353.782Z" fill="#FFEEE6"/>
<path d="M529.486 370.219C527.988 369.398 526.296 368.999 524.589 369.064C522.882 369.13 521.225 369.657 519.795 370.59C518.518 369.788 517.09 369.259 515.599 369.037C513.532 368.801 511.442 369.187 509.596 370.145C507.75 371.103 506.232 372.59 505.236 374.415L505.027 374.067C504.608 373.449 504 372.981 503.294 372.735C502.589 372.489 501.822 372.476 501.109 372.7C499.039 373.311 497.292 374.71 496.24 376.595C489.842 369.639 477.531 370.752 471.457 377.568C473.375 378.016 475.171 378.879 476.72 380.095C477.951 381.192 478.939 382.534 479.622 384.035C480.305 385.536 480.666 387.163 480.684 388.812C482.473 387.726 484.484 387.058 486.568 386.857C488.651 386.657 490.753 386.929 492.716 387.653C494.01 388.002 495.19 388.681 496.141 389.624C497.092 390.567 497.781 391.742 498.141 393.032C500.861 391.605 504.031 391.297 506.974 392.174C508.613 392.64 510.142 393.428 511.472 394.492C515.228 387.839 523.249 380.768 531.155 383.712C531.403 383.783 531.668 383.769 531.907 383.672C532.147 383.576 532.347 383.402 532.476 383.179C533.737 381.048 534.129 378.513 533.572 376.101C533.016 373.688 531.552 371.582 529.486 370.219V370.219Z" fill="#F2B19E"/>
<path d="M456.04 385.659C454.875 385.624 453.713 385.796 452.609 386.169C452.573 385.002 452.338 383.849 451.913 382.761C451.37 381.584 450.535 380.564 449.489 379.798C448.443 379.031 447.219 378.543 445.932 378.38C444.192 378.084 442.405 378.461 440.933 379.434C439.461 380.407 438.414 381.903 438.003 383.619C436.52 382.382 434.776 381.494 432.903 381.023C431.686 380.76 430.425 380.782 429.219 381.088C428.012 381.394 426.893 381.974 425.948 382.785C426.023 381.942 425.866 381.094 425.494 380.334C425.123 379.574 424.55 378.93 423.838 378.472C423.029 378.144 422.154 378.011 421.285 378.084C420.415 378.156 419.574 378.432 418.83 378.89C418.193 377.641 417.177 376.626 415.928 375.989C414.679 375.352 413.261 375.126 411.875 375.343C409.748 375.855 407.814 376.974 406.311 378.565C406.734 378.693 407.145 378.856 407.54 379.052C409.128 379.986 410.467 381.289 411.444 382.851C412.42 384.413 413.006 386.188 413.151 388.024C413.854 392.414 413.609 396.905 412.432 401.192C413.734 400.601 415.105 400.172 416.512 399.917C422.007 399.036 426.249 401.239 430.422 404.183C432.34 399.746 435.776 396.138 440.113 394.005C442.249 393.415 444.483 393.265 446.678 393.564C448.874 393.863 450.987 394.605 452.887 395.744C453.37 394.668 453.986 393.655 454.719 392.73C456.466 390.8 458.793 389.49 461.349 388.998C460.773 388.077 459.996 387.299 459.077 386.721C458.157 386.143 457.119 385.78 456.04 385.659V385.659Z" fill="#F2B19E"/>
<path d="M492.183 370.822C490.931 368.712 487.037 366.765 484.533 368.851C484.646 368.062 484.554 367.257 484.266 366.514C483.978 365.771 483.503 365.115 482.887 364.609C481.844 363.68 480.564 363.058 479.188 362.812C477.813 362.567 476.397 362.707 475.097 363.218C473.95 363.727 473.012 364.616 472.443 365.734C471.873 366.853 471.705 368.134 471.967 369.361C472.341 370.898 473.081 372.322 474.123 373.511C473.328 373.692 472.552 373.949 471.805 374.276C470.699 374.689 469.736 375.416 469.036 376.367C468.336 377.318 467.929 378.452 467.864 379.632C468.032 381.256 468.786 382.764 469.985 383.873C471.184 384.982 472.746 385.617 474.378 385.659C474.301 386.442 474.425 387.232 474.737 387.954C475.05 388.675 475.54 389.306 476.163 389.786C478.621 391.733 481.588 390.528 483.768 388.789C486.782 386.355 489.054 381.996 487.408 378.681C490.584 378.403 494.223 374.346 492.183 370.822Z" fill="#FFDAC7"/>
<path d="M483.443 373.604C481.867 371.285 477.833 374.299 477.299 375.018C476.915 375.455 476.666 375.995 476.583 376.572C476.501 377.148 476.589 377.736 476.836 378.264C477.231 378.768 477.775 379.136 478.391 379.315C479.006 379.494 479.663 379.475 480.267 379.261C482.771 378.82 485.159 376.154 483.443 373.604Z" fill="#F9C0AA"/>
<path d="M475.097 366.185C474.767 366.46 474.526 366.828 474.406 367.241C474.286 367.655 474.293 368.094 474.425 368.504C474.888 369.431 476.21 369.686 477.137 369.895C478.899 370.265 482.191 370.173 481.774 367.576C481.449 364.516 475.955 365.165 475.097 366.185Z" fill="#FFEEE6"/>
<path d="M402.811 368.503C404.063 366.394 407.934 364.446 410.438 366.533C410.327 365.742 410.423 364.935 410.715 364.192C411.008 363.449 411.487 362.794 412.107 362.29C413.15 361.361 414.43 360.739 415.805 360.494C417.181 360.248 418.597 360.389 419.897 360.899C421.044 361.409 421.981 362.297 422.551 363.416C423.121 364.535 423.289 365.815 423.027 367.043C422.634 368.572 421.896 369.992 420.871 371.193C421.667 371.369 422.444 371.625 423.189 371.958C424.299 372.366 425.264 373.091 425.965 374.043C426.666 374.995 427.071 376.132 427.13 377.313C426.971 378.942 426.22 380.455 425.019 381.566C423.818 382.677 422.251 383.309 420.616 383.341C420.695 384.122 420.575 384.91 420.267 385.632C419.959 386.353 419.473 386.985 418.854 387.468C416.373 389.415 413.429 388.209 411.249 386.447C408.236 384.129 405.964 379.678 407.61 376.363C404.41 375.968 400.77 371.935 402.811 368.503Z" fill="#FFDAC7"/>
<path d="M411.528 371.193C413.127 368.874 417.161 371.888 417.695 372.607C418.074 373.047 418.32 373.587 418.402 374.162C418.484 374.737 418.4 375.324 418.158 375.853C417.767 376.336 417.239 376.69 416.643 376.868C416.048 377.046 415.412 377.039 414.82 376.85C412.223 376.409 409.812 373.743 411.528 371.193Z" fill="#F9C0AA"/>
<path d="M419.92 363.681C420.244 363.961 420.478 364.33 420.594 364.743C420.709 365.155 420.701 365.592 420.569 366C420.105 366.927 418.807 367.182 417.88 367.367C416.118 367.762 412.826 367.669 413.127 365.049C413.521 362.105 419.016 362.754 419.92 363.681Z" fill="#FFEEE6"/>
<path d="M491.326 396.787C491.301 396.725 491.261 396.669 491.21 396.625H491.627V396.486C489.888 392.846 483.698 392.104 480.174 392.916C476.499 394.379 473.388 396.978 471.295 400.334C456.597 397.251 455.066 413.851 455.066 417.931C455.066 421.13 458.498 423.796 461.117 425.28C468.745 429.662 480.012 423.263 485.993 418.51C493.644 412.552 495.128 405.597 491.326 396.787Z" fill="#F2B19E"/>
<path d="M461.836 422.336C461.826 418.753 461.223 415.196 460.051 411.81C456.712 403.812 449.595 399.152 444.17 401.424C442.709 402.145 441.457 403.229 440.536 404.573C439.614 405.917 439.053 407.475 438.907 409.098L416.118 395.953C416.49 392.451 415.947 388.912 414.541 385.683C411.203 377.777 404.086 373.001 398.591 375.273C397.078 375.843 395.76 376.833 394.79 378.126C393.821 379.42 393.241 380.964 393.12 382.576L370.516 369.616C371.034 365.932 370.52 362.176 369.032 358.766C365.694 350.768 358.576 346.108 353.151 348.357C351.531 348.989 350.136 350.09 349.145 351.518C348.154 352.947 347.611 354.64 347.587 356.378L367.78 491.098L461.836 545.394V422.336Z" fill="#FF6682"/>
<path d="M393.189 382.576C393.434 378.928 392.905 375.27 391.636 371.842C388.321 363.867 381.203 359.23 375.779 361.548C374.253 362.316 372.956 363.473 372.02 364.901C371.084 366.33 370.541 367.98 370.446 369.686L385.771 501.6L404.688 512.52L393.189 382.576Z" fill="#F3F0FF"/>
<path d="M438.908 409.098C439.081 405.566 438.488 402.039 437.169 398.758C433.83 390.736 426.713 386.077 421.288 388.349C419.828 388.81 418.55 389.719 417.635 390.946C416.72 392.173 416.214 393.657 416.188 395.188L424.093 523.578L443.428 534.66L438.908 409.098Z" fill="#F3F0FF"/>
<path d="M461.836 422.336C461.842 418.75 462.453 415.192 463.644 411.81C466.983 403.812 474.077 399.152 479.502 401.424C480.963 402.145 482.215 403.229 483.136 404.573C484.058 405.917 484.619 407.475 484.765 409.098L507.554 395.953C507.203 392.449 507.754 388.914 509.154 385.682C512.492 377.661 519.586 373.001 525.011 375.273C526.527 375.841 527.849 376.831 528.822 378.124C529.796 379.418 530.38 380.962 530.506 382.576V382.576L553.156 369.5C552.659 365.814 553.18 362.062 554.663 358.65C558.002 350.652 565.096 345.992 570.521 348.241C572.145 348.867 573.543 349.967 574.535 351.397C575.527 352.827 576.067 354.522 576.085 356.262L555.892 491.098L461.836 545.394V422.336Z" fill="#E5DCFF"/>
<path d="M530.506 382.576C530.253 378.93 530.775 375.272 532.036 371.842C535.374 363.867 542.468 359.23 547.893 361.548C549.419 362.319 550.716 363.475 551.656 364.903C552.596 366.331 553.145 367.98 553.249 369.686L537.925 501.484L518.984 512.404L530.506 382.576Z" fill="#FC5176"/>
<path d="M484.765 409.098C484.587 405.564 485.189 402.034 486.526 398.758C489.865 390.736 496.959 386.077 502.384 388.349C503.857 388.798 505.15 389.701 506.078 390.93C507.007 392.158 507.523 393.648 507.554 395.188L499.718 523.578L480.383 534.66L484.765 409.098Z" fill="#FC5176"/>
<path d="M483.281 520.24C482.214 519.66 480.962 519.475 479.896 518.872C478.83 518.269 477.972 517.365 476.905 516.809C476.853 516.778 476.793 516.764 476.732 516.768C476.672 516.773 476.614 516.795 476.566 516.833C476.519 516.87 476.484 516.921 476.466 516.979C476.447 517.037 476.447 517.099 476.465 517.157C477.022 518.429 477.931 519.515 479.085 520.288C480.24 521.06 481.591 521.486 482.979 521.515C483.536 521.353 483.907 520.565 483.281 520.24Z" fill="#EF3C67"/>
<path d="M490.004 506.26C488.979 507.393 488.063 508.619 487.268 509.923C486.302 511.077 485.57 512.408 485.112 513.841C485.099 513.925 485.11 514.01 485.146 514.087C485.182 514.163 485.24 514.227 485.313 514.27C485.386 514.312 485.47 514.332 485.554 514.326C485.638 514.32 485.719 514.288 485.785 514.235C486.891 513.194 487.788 511.95 488.428 510.572C489.212 509.316 489.895 507.998 490.468 506.631C490.517 506.57 490.54 506.491 490.531 506.413C490.522 506.335 490.483 506.263 490.421 506.214C490.391 506.19 490.356 506.171 490.319 506.161C490.281 506.15 490.242 506.146 490.203 506.151C490.125 506.159 490.053 506.199 490.004 506.26V506.26Z" fill="#EF3C67"/>
<path d="M541.495 489.777C540.305 490.379 539.018 490.763 537.693 490.913C536.425 490.844 535.175 490.586 533.983 490.148C533.933 490.138 533.881 490.143 533.833 490.162C533.785 490.18 533.743 490.211 533.712 490.252C533.681 490.293 533.661 490.342 533.656 490.393C533.651 490.444 533.66 490.495 533.682 490.542C534.183 491.199 534.834 491.728 535.58 492.085C536.326 492.441 537.146 492.615 537.972 492.593C538.799 492.57 539.608 492.351 540.333 491.954C541.059 491.557 541.679 490.994 542.144 490.31C542.215 490.224 542.248 490.113 542.237 490.002C542.227 489.891 542.172 489.789 542.086 489.719C542 489.648 541.889 489.614 541.778 489.625C541.668 489.636 541.566 489.691 541.495 489.777Z" fill="#EF3C67"/>
<path d="M550.606 474.452C549.836 475.746 549 477 548.102 478.208C547.291 479.228 545.9 480.017 545.32 481.176C545.252 481.299 545.221 481.439 545.232 481.58C545.243 481.72 545.295 481.854 545.381 481.965C545.468 482.076 545.585 482.16 545.718 482.205C545.852 482.25 545.995 482.255 546.131 482.219C547.592 481.918 548.728 480.202 549.516 479.043C550.434 477.723 551.001 476.191 551.162 474.592C551.186 474.29 550.768 474.221 550.606 474.452Z" fill="#EF3C67"/>
<path d="M535.908 478.927C535.306 480.442 534.585 481.908 533.751 483.309C532.922 484.4 532.193 485.564 531.572 486.786C531.387 487.25 531.989 487.644 532.384 487.412C535.003 485.882 536.186 481.825 536.487 478.997C536.533 478.649 536.023 478.649 535.908 478.927Z" fill="#EF3C67"/>
<path d="M559.022 415.427C558.43 416.954 557.709 418.428 556.865 419.832C556.027 420.917 555.297 422.082 554.686 423.309C554.501 423.773 555.104 424.167 555.498 423.935C558.117 422.405 559.3 418.325 559.601 415.52C559.648 415.149 559.137 415.149 559.022 415.427Z" fill="#EF3C67"/>
<path d="M511.797 507.141C510.614 507.86 509.641 508.903 508.505 509.691C507.331 510.446 506.115 511.135 504.865 511.755C504.784 511.797 504.714 511.858 504.66 511.932C504.607 512.007 504.573 512.093 504.559 512.183C504.545 512.273 504.553 512.366 504.582 512.453C504.611 512.539 504.66 512.618 504.726 512.682C504.8 512.799 504.91 512.889 505.039 512.939C505.169 512.99 505.311 512.997 505.444 512.96C506.935 512.691 508.351 512.107 509.598 511.247C510.845 510.388 511.895 509.273 512.678 507.976C512.817 507.443 512.353 506.817 511.797 507.141Z" fill="#EF3C67"/>
<path d="M514.648 499.12C513.921 497.655 512.904 496.354 511.658 495.294C511.124 494.924 510.661 495.642 510.869 496.083C511.518 497.543 512.562 498.818 513.188 500.233C513.716 501.603 514.385 502.916 515.181 504.151C515.268 504.236 515.377 504.295 515.495 504.319C515.614 504.344 515.738 504.334 515.851 504.289C515.964 504.245 516.061 504.169 516.132 504.07C516.202 503.972 516.243 503.855 516.248 503.733C516.118 502.084 515.567 500.495 514.648 499.12V499.12Z" fill="#EF3C67"/>
<path d="M567.461 371.378C566.327 372.35 565.315 373.456 564.447 374.67C563.475 375.692 562.69 376.877 562.128 378.171C562.103 378.282 562.11 378.399 562.148 378.506C562.186 378.614 562.254 378.708 562.344 378.779C562.434 378.849 562.542 378.893 562.656 378.904C562.769 378.916 562.884 378.895 562.986 378.843C564.089 377.953 565.01 376.859 565.699 375.621C566.626 374.455 567.405 373.177 568.017 371.819C568.033 371.746 568.028 371.671 568.004 371.601C567.979 371.531 567.935 371.47 567.877 371.424C567.819 371.378 567.749 371.349 567.675 371.341C567.602 371.333 567.527 371.346 567.461 371.378V371.378Z" fill="#EF3C67"/>
<path d="M559.833 381.208C559.485 380.837 558.998 381.324 559.161 381.741C559.986 383.912 561.222 385.903 562.8 387.607C562.837 387.663 562.884 387.712 562.94 387.75C562.995 387.788 563.057 387.815 563.123 387.829C563.188 387.843 563.256 387.843 563.322 387.831C563.388 387.819 563.451 387.794 563.508 387.757C563.564 387.721 563.612 387.674 563.651 387.618C563.689 387.563 563.715 387.501 563.729 387.435C563.743 387.369 563.744 387.302 563.732 387.236C563.72 387.17 563.695 387.107 563.658 387.05C562.782 384.869 561.482 382.884 559.833 381.208V381.208Z" fill="#EF3C67"/>
<path d="M551.603 467.173C550.838 466.106 549.748 464.391 548.38 464.136C548.308 464.122 548.234 464.127 548.164 464.149C548.095 464.172 548.032 464.211 547.981 464.264C547.93 464.317 547.894 464.382 547.874 464.453C547.855 464.523 547.854 464.598 547.87 464.669C548.102 465.944 549.516 467.15 550.189 468.262C550.861 469.375 551.325 470.929 552.507 471.531C552.567 471.566 552.633 471.587 552.702 471.592C552.77 471.598 552.839 471.588 552.904 471.564C552.968 471.539 553.026 471.501 553.074 471.451C553.122 471.401 553.158 471.342 553.179 471.276C553.62 469.839 552.414 468.193 551.603 467.173Z" fill="#EF3C67"/>
<path d="M557.074 455.813C557.064 455.781 557.047 455.751 557.025 455.726C557.002 455.701 556.975 455.682 556.944 455.668C556.913 455.655 556.88 455.649 556.846 455.65C556.813 455.651 556.78 455.659 556.75 455.674C555.892 456.184 555.474 457.366 554.918 458.178C554.139 459.123 553.463 460.149 552.901 461.238C552.866 461.319 552.856 461.409 552.872 461.496C552.889 461.583 552.931 461.662 552.994 461.725C553.056 461.787 553.136 461.83 553.223 461.846C553.31 461.863 553.4 461.853 553.481 461.817C554.584 461.156 555.464 460.179 556.008 459.012C556.726 458.103 557.103 456.971 557.074 455.813V455.813Z" fill="#EF3C67"/>
<path d="M477.207 526.755C476.287 526.608 475.355 526.553 474.425 526.592C473.448 526.392 472.454 526.283 471.457 526.268C471.421 526.272 471.386 526.285 471.356 526.305C471.326 526.325 471.3 526.352 471.282 526.383C471.264 526.415 471.254 526.45 471.252 526.486C471.25 526.523 471.257 526.559 471.272 526.592C472.041 527.409 473.07 527.932 474.183 528.072C475.296 528.212 476.422 527.959 477.369 527.357C477.418 527.315 477.454 527.259 477.473 527.197C477.492 527.135 477.493 527.068 477.476 527.006C477.459 526.943 477.425 526.886 477.377 526.842C477.33 526.797 477.271 526.767 477.207 526.755V526.755Z" fill="#EF3C67"/>
<path d="M559.207 409.469C558.285 409.345 557.355 409.291 556.425 409.307C555.456 409.107 554.47 408.998 553.481 408.982C553.318 408.982 553.179 409.167 553.272 409.307C554.038 410.127 555.066 410.654 556.179 410.798C557.292 410.942 558.42 410.693 559.369 410.095C559.417 410.049 559.451 409.992 559.469 409.928C559.487 409.865 559.488 409.798 559.471 409.734C559.455 409.671 559.422 409.612 559.375 409.566C559.329 409.519 559.271 409.486 559.207 409.469V409.469Z" fill="#EF3C67"/>
<path d="M455.043 525.874C454.166 526.681 453.202 527.389 452.168 527.983C451.195 528.517 450.105 528.818 449.131 529.374C449.039 529.437 448.968 529.528 448.93 529.634C448.892 529.739 448.888 529.854 448.919 529.962C448.949 530.07 449.013 530.165 449.102 530.234C449.19 530.304 449.298 530.344 449.41 530.348C450.707 530.264 451.963 529.855 453.061 529.158C454.159 528.462 455.064 527.499 455.692 526.36C455.73 526.274 455.737 526.178 455.713 526.088C455.688 525.997 455.635 525.918 455.56 525.861C455.485 525.805 455.393 525.776 455.299 525.778C455.206 525.78 455.115 525.814 455.043 525.874V525.874Z" fill="#FC5176"/>
<path d="M452.354 523.138C451.633 522.127 450.775 521.222 449.804 520.449C448.853 519.544 447.995 518.524 447.022 517.667C446.813 517.481 446.419 517.667 446.535 517.945C447.056 519.175 447.777 520.311 448.668 521.306C449.48 522.447 450.608 523.325 451.913 523.833C451.993 523.828 452.071 523.804 452.14 523.763C452.209 523.722 452.267 523.665 452.31 523.597C452.353 523.53 452.379 523.453 452.387 523.373C452.395 523.293 452.383 523.213 452.354 523.138Z" fill="#FC5176"/>
<path d="M388.46 487.992C387.511 488.423 386.623 488.977 385.817 489.638C384.953 490.152 384.172 490.792 383.499 491.539C383.128 492.002 383.8 492.42 384.194 492.257C385.047 491.756 385.827 491.14 386.513 490.426C387.299 489.837 388.007 489.152 388.622 488.386C388.641 488.35 388.652 488.31 388.654 488.27C388.656 488.229 388.649 488.188 388.633 488.151C388.618 488.113 388.594 488.08 388.564 488.052C388.534 488.025 388.499 488.004 388.46 487.992V487.992Z" fill="#FC5176"/>
<path d="M392.378 497.288C391.706 496.544 390.969 495.861 390.176 495.248C389.437 494.424 388.748 493.557 388.112 492.652C388.069 492.596 388.009 492.555 387.941 492.537C387.873 492.518 387.8 492.523 387.735 492.549C387.669 492.575 387.614 492.622 387.578 492.682C387.541 492.743 387.525 492.813 387.533 492.883C387.762 494.037 388.281 495.114 389.04 496.013C389.685 497.007 390.65 497.751 391.775 498.123C392.169 498.123 392.656 497.706 392.378 497.288Z" fill="#FC5176"/>
<path d="M408.166 501.577C406.914 502.18 405.848 503.154 404.689 503.896C403.529 504.637 402.046 505.008 400.91 505.773C400.794 505.836 400.703 505.935 400.651 506.056C400.599 506.177 400.59 506.312 400.625 506.439C400.66 506.565 400.737 506.676 400.844 506.754C400.95 506.831 401.08 506.869 401.211 506.863C402.727 506.659 404.171 506.094 405.422 505.214C406.673 504.334 407.693 503.166 408.398 501.809C408.444 501.624 408.259 501.531 408.166 501.577Z" fill="#FC5176"/>
<path d="M416.674 504.962C416.118 504.104 415.469 503.339 414.912 502.458C414.388 501.496 413.976 500.477 413.684 499.421C413.66 499.361 413.618 499.309 413.564 499.273C413.511 499.236 413.447 499.217 413.382 499.217C413.317 499.217 413.254 499.236 413.2 499.273C413.147 499.309 413.105 499.361 413.081 499.421C412.763 500.65 412.914 501.954 413.506 503.077C414.097 504.2 415.087 505.063 416.28 505.495C416.348 505.507 416.418 505.5 416.482 505.474C416.545 505.448 416.601 505.406 416.642 505.35C416.683 505.295 416.707 505.229 416.713 505.161C416.719 505.092 416.705 505.023 416.674 504.962V504.962Z" fill="#FC5176"/>
<path d="M429.054 511.824C427.894 512.514 426.786 513.289 425.739 514.143C424.487 514.861 423.073 515.209 421.821 515.905C421.737 515.956 421.672 516.033 421.635 516.123C421.597 516.214 421.59 516.314 421.613 516.41C421.636 516.505 421.689 516.591 421.764 516.654C421.839 516.717 421.932 516.755 422.03 516.763C423.613 516.761 425.158 516.276 426.458 515.371C427.594 514.676 429.101 513.679 429.472 512.358C429.521 512.296 429.548 512.221 429.548 512.142C429.549 512.064 429.523 511.987 429.474 511.926C429.426 511.864 429.358 511.82 429.282 511.802C429.206 511.784 429.126 511.791 429.054 511.824V511.824Z" fill="#FC5176"/>
<path d="M455.02 502.829C453.977 503.571 453.119 504.568 452.099 505.379C451.079 506.191 449.781 506.701 448.923 507.559C448.598 507.837 448.923 508.254 449.224 508.254C450.631 508.047 451.966 507.496 453.11 506.651C454.254 505.806 455.173 504.693 455.785 503.409C455.838 503.307 455.853 503.189 455.828 503.077C455.803 502.965 455.739 502.866 455.647 502.796C455.556 502.727 455.442 502.692 455.328 502.698C455.213 502.704 455.104 502.751 455.02 502.829V502.829Z" fill="#FC5176"/>
<path d="M445.957 474.948C454.058 464.379 444.116 443.157 423.751 427.548C403.386 411.938 380.31 407.852 372.209 418.42C364.108 428.989 374.05 450.211 394.415 465.82C414.78 481.43 437.856 485.516 445.957 474.948Z" fill="#EF3C67"/>
<path d="M431.373 481.778C424.982 481.591 418.687 480.183 412.826 477.629C390.755 468.564 370.956 447.49 368.777 430.589C367.873 423.959 369.704 418.673 374.086 415.288C380.693 410.188 392.471 410.35 405.569 415.728C427.617 424.793 447.416 445.867 449.618 462.745C450.522 469.398 448.691 474.684 444.332 478.046C440.545 480.69 435.987 482.003 431.373 481.778V481.778ZM386.768 413.526C382.642 413.335 378.568 414.509 375.176 416.864C371.397 419.762 369.82 424.422 370.539 430.334C372.741 446.563 391.984 466.964 413.475 475.797C425.901 480.897 436.96 481.153 443.011 476.493C446.767 473.571 448.343 468.912 447.648 463.023C445.468 446.794 426.203 426.37 404.712 417.56C399.046 415.073 392.953 413.703 386.768 413.526V413.526Z" fill="#F3F0FF"/>
<path d="M431.303 476.284C425.177 476.031 419.166 474.532 413.637 471.879C394.302 463.278 376.335 444.824 373.553 430.751C372.51 425.489 373.669 421.478 376.891 418.789C382.154 414.592 392.309 415.218 404.063 420.458C423.375 429.059 441.365 447.49 444.147 461.562C445.19 466.825 444.147 470.836 440.809 473.525C438.045 475.497 434.693 476.47 431.303 476.284ZM386.397 417.004C383.232 416.811 380.095 417.694 377.494 419.507C374.596 421.826 373.553 425.628 374.527 430.496C377.239 444.407 394.975 462.42 413.939 470.905C425.438 476.052 435.221 476.724 440.322 472.83C443.22 470.511 444.263 466.709 443.289 461.817C440.577 448.046 422.841 429.917 403.877 421.408C398.413 418.761 392.463 417.262 386.397 417.004V417.004Z" fill="#F3F0FF"/>
<path d="M401.419 431.957C401.535 433.603 401.188 434.716 400.399 435.226C399.611 435.736 398.475 435.643 397.061 434.855V437.475L393.12 435.342L392.587 428.781L391.821 421.826C392.948 422.217 394.034 422.714 395.067 423.309C396.723 424.198 398.182 425.412 399.356 426.88C400.53 428.331 401.248 430.098 401.419 431.957ZM398.591 431.818C398.561 431.376 398.414 430.95 398.166 430.584C397.917 430.217 397.576 429.923 397.177 429.731L396.852 429.592L396.991 432.606C398.104 433.186 398.591 432.931 398.591 431.818Z" fill="#F3F0FF"/>
<path d="M411.528 438.541C411.82 440.151 411.479 441.812 410.577 443.178C409.789 444.175 408.653 444.291 407.239 443.502C405.611 442.522 404.325 441.065 403.552 439.329C402.613 437.499 402.061 435.494 401.93 433.441C401.772 432.671 401.784 431.877 401.965 431.112C402.145 430.348 402.489 429.631 402.973 429.013C403.761 428.317 404.874 428.34 406.288 429.013C407.778 429.875 408.998 431.136 409.812 432.652C410.824 434.459 411.411 436.473 411.528 438.541V438.541ZM408.212 438.217C408.255 437.606 408.138 436.994 407.874 436.442C407.61 435.889 407.207 435.414 406.705 435.064C405.824 434.577 405.453 435.064 405.569 436.802C405.618 437.495 405.774 438.175 406.033 438.819C406.198 439.402 406.548 439.914 407.03 440.28C407.401 440.489 407.702 440.28 407.934 439.839C408.176 439.335 408.272 438.773 408.212 438.217V438.217Z" fill="#F3F0FF"/>
<path d="M421.265 442.691C421.357 444.345 421.01 445.434 420.221 445.96C419.433 446.493 418.32 446.354 416.883 445.589V448.209L412.965 446.076L412.501 439.492C412.316 437.776 412.084 435.411 411.736 432.397C412.86 432.805 413.946 433.309 414.982 433.904C416.648 434.777 418.11 435.994 419.271 437.475C420.434 438.979 421.128 440.794 421.265 442.691V442.691ZM418.39 442.691C418.36 442.249 418.213 441.823 417.965 441.457C417.716 441.09 417.375 440.796 416.976 440.604C416.874 440.544 416.765 440.498 416.651 440.465L416.79 443.479C417.926 443.966 418.459 443.688 418.39 442.691Z" fill="#F3F0FF"/>
<path d="M397.154 447.096C396.837 446.832 396.495 446.599 396.134 446.4C395.878 446.209 395.58 446.084 395.264 446.036C394.949 445.987 394.627 446.017 394.325 446.122C393.815 446.377 393.607 447.026 393.676 448.07C393.732 448.894 393.995 449.692 394.441 450.388C394.86 451.096 395.461 451.681 396.18 452.08C396.571 452.314 397.025 452.419 397.478 452.382L397.339 453.564C397.339 453.958 397.339 454.375 397.223 454.793C396.508 454.682 395.823 454.43 395.206 454.051C393.552 453.103 392.177 451.735 391.219 450.087C390.006 448.216 389.281 446.072 389.109 443.85C388.959 443.132 388.988 442.389 389.194 441.685C389.4 440.981 389.777 440.339 390.291 439.816C391.265 439.074 392.61 439.213 394.58 440.234C395.275 440.588 395.935 441.007 396.551 441.485L397.154 447.096Z" fill="#F3F0FF"/>
<path d="M407.401 453.564C407.681 455.174 407.342 456.831 406.45 458.201C405.639 459.198 404.526 459.314 403.112 458.525C401.476 457.548 400.181 456.091 399.403 454.352C398.477 452.516 397.925 450.515 397.78 448.464C397.623 447.694 397.635 446.9 397.815 446.135C397.995 445.37 398.339 444.654 398.823 444.036C399.634 443.34 400.724 443.363 402.138 444.036C403.625 444.892 404.845 446.144 405.662 447.652C406.689 449.463 407.284 451.486 407.401 453.564V453.564ZM404.063 453.24C404.11 452.628 403.995 452.015 403.731 451.462C403.466 450.908 403.061 450.434 402.556 450.087C401.698 449.6 401.304 450.087 401.42 451.825C401.479 452.516 401.635 453.195 401.883 453.842C402.056 454.427 402.414 454.94 402.903 455.303C403.274 455.511 403.576 455.303 403.807 454.862C404.03 454.352 404.118 453.793 404.063 453.24Z" fill="#F3F0FF"/>
<path d="M417.439 457.668C417.561 458.527 417.363 459.402 416.883 460.125C416.71 460.362 416.477 460.548 416.208 460.666C415.94 460.784 415.645 460.83 415.353 460.797C415.515 461.122 415.886 461.864 416.489 463.116C416.79 463.649 417.231 464.391 417.834 465.318C417.625 465.318 417.138 465.318 416.419 465.318H414.959L413.939 463.185C413.684 462.629 413.313 461.701 412.826 460.426L412.965 463.44L408.908 461.238C408.792 459.94 408.56 457.807 408.282 454.839C408.12 453.077 407.865 450.643 407.517 447.513C408.815 448.07 409.998 448.626 411.087 449.206C412.796 449.934 414.283 451.099 415.398 452.585C416.513 454.07 417.217 455.823 417.439 457.668V457.668ZM414.31 457.807C414.284 457.242 414.053 456.706 413.661 456.3C413.362 455.962 412.999 455.686 412.594 455.488L412.756 458.456C413.056 458.657 413.417 458.747 413.776 458.711C414.171 458.664 414.356 458.34 414.31 457.807V457.807Z" fill="#F3F0FF"/>
<path d="M426.272 457.621C426.272 458.78 426.272 460.774 426.411 463.649C426.411 465.759 426.597 468.286 426.736 470.998C426.064 470.048 425.067 468.68 423.699 466.755L421.102 463.301L421.334 467.938L419.016 466.686C418.9 465.48 418.645 463.208 418.297 459.731C417.996 456.995 417.741 454.7 417.486 452.776L421.079 454.723L423.931 459.36C423.931 458.641 423.931 458.085 423.792 457.667C423.653 457.25 423.792 456.833 423.606 456.207L426.272 457.621Z" fill="#F3F0FF"/>
<defs>
<radialGradient id="paint0_radial" cx="0" cy="0" r="1" gradientUnits="userSpaceOnUse" gradientTransform="translate(335.695 404.949) rotate(90) scale(178.378 253.485)">
<stop/>
<stop offset="1" stop-opacity="0"/>
</radialGradient>
</defs>
</svg>
