<svg width="27" height="40" viewBox="0 0 27 40" fill="none" xmlns="http://www.w3.org/2000/svg">
<path fill-rule="evenodd" clip-rule="evenodd" d="M4.95609 0.386881C2.83665 0.173213 0.944794 1.71325 0.730517 3.82664L0.077597 10.2663L4.42684 10.7048C4.85074 10.7475 5.15962 11.1248 5.11678 11.5475L6.75026e-08 11.0316H0L25.8398 13.6366L20.7229 13.1208C20.7658 12.6981 21.1442 12.3901 21.568 12.4328L25.9174 12.8713L26.5703 6.43164C26.7845 4.31823 25.2401 2.43178 23.1206 2.21811L19.0272 1.80544C18.8066 3.98136 16.3369 5.51436 13.511 5.22946C10.6851 4.94459 8.57304 2.94969 8.79364 0.77376L4.95609 0.386881ZM10.2335 12.0633C10.2764 11.6406 10.6548 11.3326 11.0787 11.3754L14.6604 11.7365C15.0843 11.7792 15.3932 12.1565 15.3503 12.5792L10.2335 12.0633Z" fill="#2A3D66"/>
<path fill-rule="evenodd" clip-rule="evenodd" d="M0 36.1538C0 38.278 1.7269 40 3.85714 40H22.1143C24.2445 40 25.9714 38.278 25.9714 36.1538V14.359H21.6C21.1739 14.359 20.8286 14.0146 20.8286 13.5897H15.6857C15.6857 14.0146 15.3403 14.359 14.9143 14.359H11.3143C10.8882 14.359 10.5429 14.0146 10.5429 13.5897H5.14286C5.14286 14.0146 4.79749 14.359 4.37143 14.359H0V36.1538ZM4.37143 35.9244C3.66135 35.9244 3.08571 35.3503 3.08571 34.6423V33.3603C3.08571 32.6521 3.66135 32.0782 4.37143 32.0782H5.65714C6.36722 32.0782 6.94286 32.6521 6.94286 33.3603V34.6423C6.94286 35.3503 6.36722 35.9244 5.65714 35.9244H4.37143ZM19.1407 34.6423C19.1407 35.3503 19.7164 35.9244 20.4264 35.9244H21.7121C22.4222 35.9244 22.9979 35.3503 22.9979 34.6423V33.3603C22.9979 32.6521 22.4222 32.0782 21.7121 32.0782H20.4264C19.7164 32.0782 19.1407 32.6521 19.1407 33.3603V34.6423ZM4.37143 29.0013C3.66135 29.0013 3.08571 28.4272 3.08571 27.7192V26.4372C3.08571 25.729 3.66135 25.1551 4.37143 25.1551H5.65714C6.36722 25.1551 6.94286 25.729 6.94286 26.4372V27.7192C6.94286 28.4272 6.36722 29.0013 5.65714 29.0013H4.37143ZM19.1407 27.7192C19.1407 28.4272 19.7164 29.0013 20.4264 29.0013H21.7121C22.4222 29.0013 22.9979 28.4272 22.9979 27.7192V26.4372C22.9979 25.729 22.4222 25.1551 21.7121 25.1551H20.4264C19.7164 25.1551 19.1407 25.729 19.1407 26.4372V27.7192ZM4.48357 22.0513C3.77349 22.0513 3.19785 21.4773 3.19785 20.7692V19.4872C3.19785 18.7791 3.77349 18.2051 4.48357 18.2051H5.76928C6.47936 18.2051 7.055 18.7791 7.055 19.4872V20.7692C7.055 21.4773 6.47936 22.0513 5.76928 22.0513H4.48357ZM19.2528 20.7692C19.2528 21.4773 19.8285 22.0513 20.5386 22.0513H21.8243C22.5344 22.0513 23.11 21.4773 23.11 20.7692V19.4872C23.11 18.7791 22.5344 18.2051 21.8243 18.2051H20.5386C19.8285 18.2051 19.2528 18.7791 19.2528 19.4872V20.7692Z" fill="url(#paint0_linear)"/>
<defs>
<linearGradient id="paint0_linear" x1="12.9857" y1="13.5897" x2="12.9857" y2="40" gradientUnits="userSpaceOnUse">
<stop stop-color="#2A3D66"/>
<stop offset="1" stop-color="#8D4882"/>
</linearGradient>
</defs>
</svg>
